<?xml version="1.0" encoding="utf-8"?>
<!-- Generator: Adobe Illustrator 27.2.0, SVG Export Plug-In . SVG Version: 6.00 Build 0)  -->
<svg version="1.1" xmlns="http://www.w3.org/2000/svg" xmlns:xlink="http://www.w3.org/1999/xlink" x="0px" y="0px"
	 viewBox="0 0 1493 758" style="enable-background:new 0 0 1493 758;" xml:space="preserve">
<style type="text/css">
	.st0{fill:#FBFAE2;}
	.st1{opacity:0.55;}
	.st2{fill:#314C4C;}
	.st3{fill:none;stroke:#000000;stroke-miterlimit:10;}
	.st4{fill:#55C3BF;}
	.st5{fill:none;stroke:#000000;stroke-width:2;stroke-miterlimit:10;}
	.st6{fill:#E25837;}
	.st7{opacity:0.12;}
	.st8{opacity:0.26;}
	.st9{fill:#F26646;}
	.st10{fill:#FFFFFF;stroke:#000000;stroke-miterlimit:10;}
</style>
<g id="Layer_3">
	<g id="XMLID_00000153664512666360058890000009544810406300042144_">
		<g>
			<rect x="-0.5" y="-0.5" class="st0" width="1493" height="758"/>
		</g>
		<g>
		</g>
	</g>
</g>
<g id="Layer_2">
	<g class="st1">
		<g id="XMLID_00000018231750120441590300000007561913785721126044_">
			<g>
				<path class="st2" d="M1156.5,541.2v132.1l-285.2,1.5c0,0,2.1-245.4,1.9-266.6l0.8-86.5c0-1.3,0.7-2.3,1.6-2.3l34.7-0.2l20.5-0.4
					c0.8,0,1.5-1,1.5-2.3l0.4-98.5l-2.5-101c0-1,0.5-2,1.3-2.5l3.7-2c0.7-0.4,1.1-1.7,0.9-3.1c-1.5-11,1.8-15.5,9.7-13.8l37-0.7
					c7.7,1.6,15.4,1.5,23.1-0.1c0.8-0.2,1.4-1.2,1.4-2.4l0.2-16.6c0.1-7,2.5-9.9,7.3-8.9c7.3,1.5,13.5,1.2,18.6-1
					c0.8-0.3,1.4-1.4,1.4-2.8c0.4-8.3,3.3-13.1,8.7-14.4c0.3-0.1,0.6-0.3,0.8-0.6c0.3,0,0.5,0,0.8,0c1.1,0,2.2-0.1,3.2-0.3
					c0.1,0,0.1,0,0.2,0c0.7,0,1.3,0,1.9-0.1c1.6,1.3,4,2.1,7.1,2.6c1.1,0.2,2,1.5,2,3l1,38.6c0.1,2.3,1.4,4.2,3,4.1
					c0.2,0,0.3,0,0.5-0.1c5.4-1.7,7.5,1.8,6.1,10.4c-0.8,5.3,0.7,8.1,4.5,8.2c5.7,0.2,6.2,5.2,1.5,15c-0.8,1.7-1.3,3.7-1.3,5.8
					v283.7c0,1.4,0.8,2.6,1.8,2.6h40.3c1.5,0,2.7,1.8,2.7,3.9l-0.5,112c0,1.7,1,3.2,2.3,3.2L1156.5,541.2z M1046.6,164.8
					c0-2.1-1.2-3.9-2.7-3.9h-0.3c-1.5,0-2.7,1.7-2.7,3.9l-0.1,17.9c0,1.1,0.3,2,0.8,2.8c0.5,0.7,1.2,1.1,1.9,1.1l0.3,0h0
					c1.5,0,2.7-1.7,2.7-3.9L1046.6,164.8z M1023.6,183.8l-0.1-19c0-1.9-1.1-3.4-2.4-3.4h0h-0.2c-1.3,0-2.4,1.5-2.4,3.4l0.1,19
					c0,1.9,1.1,3.4,2.4,3.4h0.2C1022.5,187.2,1023.6,185.7,1023.6,183.8z M1007.5,255.7c0-0.1,0-0.1,0-0.2c0-2-1.1-3.6-2.5-3.7
					l-0.3,0c-1.4-0.1-2.7,1.5-2.7,3.6l-0.6,16.9c-0.1,2.1,1,3.8,2.5,3.9l0.3,0c1.4,0.1,2.7-1.5,2.7-3.6L1007.5,255.7z M1007.3,226.6
					l-0.1-18.4c0-2.1-1.2-3.8-2.6-3.8h-0.3c-1.4,0-2.6,1.7-2.6,3.8l0.1,18.4c0,2.1,1.2,3.8,2.6,3.8h0.3
					C1006.1,230.4,1007.3,228.7,1007.3,226.6z M1004.4,183.8l-0.1-19c0-1.9-1.1-3.4-2.4-3.4h0h-0.2c-1.3,0-2.4,1.5-2.4,3.4l0.1,19
					c0,1.9,1.1,3.4,2.4,3.4h0.2C1003.4,187.2,1004.4,185.7,1004.4,183.8z M1003.4,367.1c0-2.1-1.2-3.9-2.7-3.9h-0.3
					c-1.5,0-2.7,1.7-2.7,3.9l-0.1,17.9c0,0,0,0,0,0c0,2.1,1.2,3.9,2.7,3.9l0.3,0c1.5,0,2.7-1.7,2.7-3.9L1003.4,367.1z M986.4,276.5
					c1.4-0.1,2.6-1.8,2.5-3.9l-0.4-17.3c-0.1-2-1.2-3.6-2.6-3.6c0,0-0.1,0-0.1,0l-0.5,0c-1.4,0.1-2.6,1.8-2.5,3.9l0.4,17.3
					c0.1,2.1,1.3,3.7,2.7,3.6h0L986.4,276.5z M988.7,226.8l0-18.6c0-2.1-1.2-3.8-2.6-3.8h-0.5c-1.5,0-2.7,1.7-2.7,3.8l0,18.6
					c0,1,0.3,2,0.8,2.7c0.5,0.7,1.1,1.1,1.9,1.1h0.5C987.5,230.6,988.7,228.9,988.7,226.8z M988.6,182.6l0-18c0-2.2-1.2-3.9-2.7-3.9
					l-0.3,0c-1.5,0-2.7,1.7-2.7,3.9l0,18c0,2.1,1.2,3.9,2.7,3.9h0h0.3c0.8,0,1.4-0.4,1.9-1.1C988.3,184.7,988.6,183.7,988.6,182.6z
					 M980.3,386.2l-0.1-19c0-1.9-1.1-3.4-2.4-3.4h0h-0.2c-1.3,0-2.4,1.5-2.4,3.4l0,19c0,1.9,1.1,3.4,2.4,3.4h0.2
					C979.3,389.6,980.3,388.1,980.3,386.2z M971.2,182.8l0.1-18.2c0-2.2-1.2-4-2.8-4h-0.3c-1.5,0-2.8,1.8-2.8,4l-0.1,18.2
					c0,1.1,0.3,2.1,0.8,2.8c0.5,0.7,1.2,1.2,2,1.2h0.3C970,186.8,971.2,185,971.2,182.8z M971.2,274l0-19c0-1.9-1.1-3.5-2.4-3.5
					l-0.9,0c-1.3,0-2.4,1.6-2.4,3.5l0,19c0,1.9,1.1,3.5,2.4,3.5h0.9C970.1,277.5,971.2,275.9,971.2,274z M971.2,226.8v-18.5
					c0-2.1-1.2-3.8-2.6-3.8h-0.5c-1.5,0-2.6,1.7-2.6,3.8v18.5c0,1,0.3,2,0.8,2.7c0.5,0.7,1.1,1.1,1.9,1.1h0.5
					C970.1,230.6,971.2,228.9,971.2,226.8z M964.3,458.1c0-0.1,0-0.1,0-0.2c0-2-1.1-3.6-2.5-3.7l-0.3,0c0,0-0.1,0-0.1,0
					c-1.4,0-2.5,1.6-2.6,3.6l-0.6,16.9c-0.1,2.1,1,3.8,2.5,3.9l0.3,0c1.4,0.1,2.7-1.5,2.7-3.6L964.3,458.1z M964,429l-0.1-18.4
					c0-2.1-1.2-3.8-2.6-3.8h-0.3c-1.4,0-2.6,1.7-2.6,3.8l0.1,18.4c0,2.1,1.2,3.8,2.6,3.7h0.3C962.9,432.8,964,431.1,964,429z
					 M961.2,386.2l-0.1-19c0-1.9-1.1-3.4-2.4-3.4h0h-0.2c-1.3,0-2.4,1.5-2.4,3.4l0,19c0,1.9,1.1,3.4,2.4,3.4h0.2
					C960.1,389.6,961.2,388.1,961.2,386.2z M955.9,225.5v-18.5c0-2.1-1.2-3.8-2.6-3.8h-0.5c-1.5,0-2.6,1.7-2.6,3.8v18.5
					c0,1,0.3,2,0.8,2.7c0.5,0.7,1.1,1.1,1.9,1.1h0.5C954.8,229.3,955.9,227.6,955.9,225.5z M952.4,273.7v-19.1
					c0-2.1-1.2-3.9-2.7-3.9h-0.2c-1.5,0-2.7,1.7-2.7,3.9v19.1c0,2.1,1.2,3.8,2.7,3.8h0.2C951.2,277.5,952.4,275.8,952.4,273.7z
					 M952.4,183.2l-0.1-19c0-1.9-1.1-3.4-2.4-3.4h0h-0.2c-1.3,0-2.4,1.5-2.4,3.4l0.1,19c0,1.9,1.1,3.4,2.4,3.4h0.2
					C951.3,186.6,952.4,185.1,952.4,183.2z M943.1,478.9c1.4-0.1,2.6-1.8,2.5-3.9l-0.4-17.3c0-2-1.2-3.6-2.6-3.6c0,0-0.1,0-0.1,0
					l-0.5,0c-1.4,0.1-2.5,1.7-2.5,3.7c0,0.1,0,0.1,0,0.1l0.4,17.3c0.1,2,1.2,3.6,2.6,3.6c0,0,0.1,0,0.1,0L943.1,478.9z M945.4,429.1
					l0-18.6c0-2.1-1.2-3.8-2.6-3.8h-0.5c-1.5,0-2.6,1.7-2.6,3.8l0,18.6c0,1,0.3,2,0.8,2.7c0.5,0.7,1.1,1.1,1.9,1.1h0.5
					C944.3,432.9,945.4,431.2,945.4,429.1z M945.3,385l0-18c0-2.2-1.2-3.9-2.7-3.9h-0.3c-1.5,0-2.7,1.7-2.7,3.9l0,18
					c0,1.1,0.3,2.1,0.8,2.8c0.5,0.7,1.2,1.1,1.9,1.1h0.3c0.7,0,1.4-0.4,1.9-1.1C945,387,945.3,386.1,945.3,385z M928,385.2L928,367
					c0-2.2-1.2-4-2.8-4l-0.3,0c-1.5,0-2.8,1.8-2.8,4l-0.1,18.2c0,1.1,0.3,2.1,0.8,2.8c0.5,0.7,1.2,1.2,2,1.2h0.3
					C926.8,389.1,928,387.4,928,385.2z M928,476.4l0-19c0-1.9-1.1-3.5-2.4-3.5h-0.9c-1.4,0-2.4,1.6-2.4,3.5l0,19
					c0,1.9,1.1,3.5,2.4,3.5h0.9C926.9,479.9,928,478.3,928,476.4z M928,429.1v-18.5c0-2.1-1.2-3.8-2.6-3.8h-0.5
					c-1.5,0-2.6,1.7-2.6,3.8v18.5c0,1.1,0.3,2,0.8,2.7c0.5,0.7,1.1,1.1,1.9,1.1h0.5C926.8,432.9,928,431.2,928,429.1z M912.7,427.8
					v-18.5c0-2.1-1.2-3.8-2.6-3.8h-0.5c-1.5,0-2.6,1.7-2.6,3.8v18.5c0,1.1,0.3,2,0.8,2.7c0.5,0.7,1.1,1.1,1.9,1.1h0.5
					C911.5,431.6,912.7,429.9,912.7,427.8z M909.2,476v-19.1c0-2.1-1.2-3.9-2.7-3.9h-0.2c-1.5,0-2.7,1.7-2.7,3.9V476
					c0,2.1,1.2,3.9,2.7,3.9h0.2C908,479.9,909.2,478.2,909.2,476z M909.1,385.6l-0.1-19c0-1.9-1.1-3.4-2.4-3.4h0h-0.2
					c-1.3,0-2.4,1.5-2.4,3.4l0,19c0,1.9,1.1,3.4,2.4,3.4h0.2C908.1,389,909.1,387.5,909.1,385.6z"/>
			</g>
			<g>
				<path class="st3" d="M1156.5,673.3V541.2l-34.9-0.3c-1.3,0-2.3-1.4-2.3-3.2l0.5-112c0-2.2-1.2-3.9-2.7-3.9h-40.3
					c-1,0-1.8-1.1-1.8-2.6V135.5c0-2.1,0.4-4.1,1.3-5.8c4.8-9.8,4.3-14.8-1.5-15c-3.8-0.1-5.3-2.8-4.5-8.2
					c1.3-8.7-0.7-12.1-6.1-10.4c-0.2,0.1-0.3,0.1-0.5,0.1c-1.6,0.1-2.9-1.7-3-4.1l-1-38.6c0-1.6-0.9-2.9-2-3
					c-3.1-0.4-5.5-1.3-7.1-2.6c-0.6,0.1-1.2,0.1-1.9,0.1c-0.1,0-0.1,0-0.2,0c-1,0.2-2.1,0.3-3.2,0.3c-0.3,0-0.6,0-0.8,0
					c-0.2,0.3-0.5,0.5-0.8,0.6c-5.4,1.3-8.3,6.1-8.7,14.4c-0.1,1.3-0.6,2.4-1.4,2.8c-5.1,2.2-11.3,2.5-18.6,1c-4.8-1-7.2,2-7.3,8.9
					l-0.2,16.6c0,1.2-0.6,2.2-1.4,2.4c-7.7,1.6-15.4,1.7-23.1,0.1l-37,0.7c-7.9-1.8-11.2,2.8-9.7,13.8c0.2,1.4-0.2,2.8-0.9,3.1
					l-3.7,2c-0.8,0.4-1.3,1.4-1.3,2.5l2.5,101l-0.4,98.5c0,1.2-0.7,2.2-1.5,2.3l-20.5,0.4l-34.7,0.2c-0.9,0-1.6,1-1.6,2.3l-0.8,86.5
					c0.2,21.3-1.9,266.6-1.9,266.6L1156.5,673.3z"/>
				<path class="st3" d="M1041,164.7c0-2.1,1.2-3.9,2.7-3.9h0.3c1.5,0,2.7,1.8,2.7,3.9l-0.1,17.9c0,2.1-1.2,3.9-2.7,3.9h0l-0.3,0
					c-0.7,0-1.4-0.4-1.9-1.1c-0.5-0.7-0.8-1.7-0.8-2.8L1041,164.7z"/>
				<path class="st3" d="M1004.3,204.5h0.3c1.4,0,2.6,1.7,2.6,3.8l0.1,18.4c0,2.1-1.2,3.8-2.6,3.8h-0.3c-1.4,0-2.6-1.7-2.6-3.8
					l-0.1-18.4C1001.7,206.2,1002.9,204.5,1004.3,204.5z"/>
				<path class="st3" d="M1002,255.3c0.1-2.1,1.3-3.7,2.7-3.6l0.3,0c1.4,0.1,2.5,1.7,2.5,3.7c0,0.1,0,0.1,0,0.2l-0.6,16.9
					c-0.1,2.1-1.3,3.7-2.7,3.6l-0.3,0c-1.4-0.1-2.6-1.9-2.5-3.9L1002,255.3z"/>
				<path class="st3" d="M985.6,160.8l0.3,0c1.5,0,2.7,1.7,2.7,3.9l0,18c0,1.1-0.3,2.1-0.8,2.8c-0.5,0.7-1.1,1.1-1.9,1.1h-0.3h0
					c-1.5,0-2.7-1.7-2.7-3.9l0-18C982.9,162.5,984.1,160.8,985.6,160.8z"/>
				<path class="st3" d="M982.9,208.2c0-2.1,1.2-3.8,2.7-3.8h0.5c1.5,0,2.6,1.7,2.6,3.8l0,18.6c0,2.1-1.2,3.8-2.6,3.8h-0.5
					c-0.7,0-1.4-0.4-1.9-1.1c-0.5-0.7-0.8-1.6-0.8-2.7L982.9,208.2z"/>
				<path class="st3" d="M982.8,255.6c-0.1-2.1,1.1-3.8,2.5-3.9l0.5,0c0,0,0.1,0,0.1,0c1.4,0,2.6,1.6,2.6,3.6l0.4,17.3
					c0,2.1-1.1,3.8-2.5,3.9l-0.5,0h0c-1.4,0.1-2.6-1.6-2.7-3.6L982.8,255.6z"/>
				<path class="st3" d="M965.5,164.6c0-2.2,1.2-4,2.8-4h0.3c1.5,0,2.8,1.8,2.8,4l-0.1,18.2c0,2.2-1.2,4-2.8,4h-0.3
					c-0.8,0-1.5-0.4-2-1.2c-0.5-0.7-0.8-1.7-0.8-2.8L965.5,164.6z"/>
				<path class="st3" d="M965.4,208.2c0-2.1,1.2-3.8,2.6-3.8h0.5c1.5,0,2.6,1.7,2.6,3.8v18.5c0,2.1-1.2,3.8-2.6,3.8h-0.5
					c-0.7,0-1.4-0.4-1.9-1.1c-0.5-0.7-0.8-1.6-0.8-2.7V208.2z"/>
				<path class="st3" d="M965.5,255c0-1.9,1.1-3.5,2.4-3.5l0.9,0c1.3,0,2.4,1.6,2.4,3.5l0,19c0,1.9-1.1,3.5-2.4,3.5h-0.9
					c-1.4,0-2.4-1.6-2.4-3.5L965.5,255z"/>
				<path class="st3" d="M953.3,203.1c1.5,0,2.6,1.7,2.6,3.8v18.5c0,2.1-1.2,3.8-2.6,3.8h-0.5c-0.7,0-1.4-0.4-1.9-1.1
					c-0.5-0.7-0.8-1.6-0.8-2.7v-18.5c0-2.1,1.2-3.8,2.6-3.8H953.3z"/>
				<path class="st3" d="M949.7,160.8h0.2h0c1.3,0,2.4,1.5,2.4,3.4l0.1,19c0,1.9-1.1,3.4-2.4,3.4h-0.2c-1.3,0-2.4-1.5-2.4-3.4
					l-0.1-19C947.4,162.4,948.4,160.8,949.7,160.8z"/>
				<path class="st3" d="M946.9,254.5c0-2.1,1.2-3.9,2.7-3.9h0.2c1.5,0,2.7,1.7,2.7,3.9v19.1c0,2.1-1.2,3.8-2.7,3.8h-0.2
					c-1.5,0-2.7-1.7-2.7-3.8V254.5z"/>
				<path class="st3" d="M1001.8,161.4h0.2h0c1.3,0,2.4,1.5,2.4,3.4l0.1,19c0,1.9-1.1,3.4-2.4,3.4h-0.2c-1.3,0-2.4-1.5-2.4-3.4
					l-0.1-19C999.4,163,1000.5,161.4,1001.8,161.4z"/>
				<path class="st3" d="M1020.9,161.4h0.2h0c1.3,0,2.4,1.5,2.4,3.4l0.1,19c0,1.9-1.1,3.4-2.4,3.4h-0.2c-1.3,0-2.4-1.5-2.4-3.4
					l-0.1-19C1018.5,163,1019.6,161.4,1020.9,161.4z"/>
				<path class="st3" d="M942.3,363.1h0.3c1.5,0,2.7,1.7,2.7,3.9l0,18c0,1.1-0.3,2.1-0.8,2.8c-0.5,0.7-1.2,1.1-1.9,1.1h-0.3
					c-0.8,0-1.4-0.4-1.9-1.1c-0.5-0.7-0.8-1.7-0.8-2.8l0-18C939.6,364.9,940.8,363.1,942.3,363.1z"/>
				<path class="st3" d="M939.7,410.6c0-2.1,1.2-3.8,2.6-3.8h0.5c1.5,0,2.6,1.7,2.6,3.8l0,18.6c0,2.1-1.2,3.8-2.6,3.8h-0.5
					c-0.7,0-1.4-0.4-1.9-1.1c-0.5-0.7-0.8-1.6-0.8-2.7L939.7,410.6z"/>
				<path class="st3" d="M922.2,410.6c0-2.1,1.2-3.8,2.6-3.8h0.5c1.5,0,2.6,1.7,2.6,3.8v18.5c0,2.1-1.2,3.8-2.6,3.8h-0.5
					c-0.7,0-1.4-0.4-1.9-1.1c-0.5-0.7-0.8-1.6-0.8-2.7V410.6z"/>
				<path class="st3" d="M906.9,409.3c0-2.1,1.2-3.8,2.6-3.8h0.5c1.5,0,2.6,1.7,2.6,3.8v18.5c0,2.1-1.2,3.8-2.6,3.8h-0.5
					c-0.7,0-1.4-0.4-1.9-1.1c-0.5-0.7-0.8-1.6-0.8-2.7V409.3z"/>
				<path class="st3" d="M906.5,363.2h0.2h0c1.3,0,2.4,1.5,2.4,3.4l0.1,19c0,1.9-1.1,3.4-2.4,3.4h-0.2c-1.3,0-2.4-1.5-2.4-3.4l0-19
					C904.1,364.7,905.2,363.2,906.5,363.2z"/>
				<path class="st3" d="M909.2,476c0,2.1-1.2,3.9-2.7,3.9h-0.2c-1.5,0-2.7-1.7-2.7-3.9v-19.1c0-2.1,1.2-3.9,2.7-3.9h0.2
					c1.5,0,2.7,1.7,2.7,3.9V476z"/>
				<path class="st3" d="M928,476.4c0,1.9-1.1,3.5-2.4,3.5h-0.9c-1.3,0-2.4-1.6-2.4-3.5l0-19c0-1.9,1.1-3.5,2.4-3.5h0.9
					c1.3,0,2.4,1.6,2.4,3.5L928,476.4z"/>
				<path class="st3" d="M928,385.2c0,2.2-1.2,4-2.8,4h-0.3c-0.8,0-1.5-0.4-2-1.2c-0.5-0.7-0.8-1.7-0.8-2.8l0.1-18.2
					c0-2.2,1.2-4,2.8-4l0.3,0c1.5,0,2.8,1.8,2.8,4L928,385.2z"/>
				<path class="st3" d="M943.1,478.9l-0.5,0c0,0-0.1,0-0.1,0c-1.4,0-2.6-1.6-2.6-3.6l-0.4-17.3c0-0.1,0-0.1,0-0.1
					c0-2,1.1-3.7,2.5-3.7l0.5,0c0,0,0.1,0,0.1,0c1.4,0,2.6,1.6,2.6,3.6l0.4,17.3C945.7,477.1,944.6,478.8,943.1,478.9z"/>
				<path class="st3" d="M964,429c0,2.1-1.2,3.8-2.6,3.8h-0.3c-1.4,0-2.6-1.7-2.6-3.7l-0.1-18.4c0-2.1,1.2-3.8,2.6-3.8h0.3
					c1.4,0,2.6,1.7,2.6,3.8L964,429z"/>
				<path class="st3" d="M963.7,474.9c-0.1,2.1-1.3,3.7-2.7,3.6l-0.3,0c-1.4-0.1-2.6-1.9-2.5-3.9l0.6-16.9c0.1-2,1.2-3.6,2.6-3.6
					c0,0,0.1,0,0.1,0l0.3,0c1.4,0.1,2.5,1.7,2.5,3.7c0,0.1,0,0.1,0,0.2L963.7,474.9z"/>
				<path class="st3" d="M1003.3,385c0,2.1-1.2,3.9-2.7,3.9l-0.3,0c-1.5,0-2.7-1.7-2.7-3.9c0,0,0,0,0,0l0.1-17.9
					c0-2.2,1.2-3.9,2.7-3.9h0.3c1.5,0,2.7,1.8,2.7,3.9L1003.3,385z"/>
				<path class="st3" d="M958.5,363.8h0.2h0c1.3,0,2.4,1.5,2.4,3.4l0.1,19c0,1.9-1.1,3.4-2.4,3.4h-0.2c-1.3,0-2.4-1.5-2.4-3.4l0-19
					C956.1,365.3,957.2,363.8,958.5,363.8z"/>
				<path class="st3" d="M977.7,363.8h0.2h0c1.3,0,2.4,1.5,2.4,3.4l0.1,19c0,1.9-1.1,3.4-2.4,3.4h-0.2c-1.3,0-2.4-1.5-2.4-3.4l0-19
					C975.3,365.3,976.3,363.8,977.7,363.8z"/>
			</g>
		</g>
	</g>
	<g class="st1">
		<g id="XMLID_00000129927994726397797470000008496512280007271342_">
			<g>
				<path d="M508.6,375.4c-0.2,0-0.4,0-0.6,0c-0.2-21.9-0.3-42.4-0.4-62s-0.1-38.4-0.1-57c0-26.2,0.1-49.6,0.4-68.7
					c0.3-19,0.7-33.6,1.3-42.2v0v0c0-0.7-0.1-1.4-0.3-2c-0.2-0.6-0.5-1.2-0.8-1.6c-0.3-0.4-0.7-0.8-1.1-1c-0.4-0.2-0.9-0.4-1.3-0.4
					h0h0c-1.3,0-2.4,0.2-3.4,0.6c-1,0.4-1.9,0.9-2.6,1.6c-0.7,0.7-1.3,1.5-1.8,2.6c-0.5,1-0.9,2.3-1.1,3.7c-0.2,1-0.6,2-1.1,2.8
					c-0.6,0.8-1.3,1.4-2.2,1.7l-8.7,3.3l-8.7,3.3h0c-0.2,0.1-0.4,0.1-0.6,0.2s-0.4,0-0.6,0c-0.8,0-1.5-0.2-2.1-0.7
					c-0.6-0.5-1.1-1.1-1.5-1.9c-0.3-0.8-0.7-1.4-1.1-2c-0.4-0.5-0.8-1-1.3-1.3c-0.4-0.4-0.9-0.6-1.4-0.8c-0.5-0.2-1-0.3-1.6-0.3
					c-0.3,0-0.5,0-0.8,0.1c-0.3,0-0.6,0.1-0.9,0.2c-0.2,0.1-0.5,0.1-0.8,0.1c-0.3,0-0.6,0-0.9,0c-0.8,0-1.6-0.1-2.6-0.2
					c-1-0.2-2.1-0.4-3.4-0.7c0,0.2,0,0.4,0,0.6c0,0.2,0,0.4,0,0.6c0,0.9,0.1,1.9,0.3,3c0.2,1.1,0.5,2.2,0.8,3.5c0,0.1,0,0.2,0.1,0.3
					c0,0.1,0,0.2,0.1,0.3c0,0.2,0.1,0.4,0.1,0.5c0,0.2,0,0.3,0,0.5c0,0.5-0.1,1.1-0.2,1.6s-0.3,1-0.6,1.4c-0.3,0.4-0.6,0.8-0.9,1.1
					c-0.4,0.3-0.8,0.6-1.2,0.7l-10.4,3.5l-10.4,3.5h0c-0.1,0-0.1,0-0.2,0.1c-0.1,0-0.1,0-0.2,0l-0.1,0l-0.1,0
					c-0.2,0-0.4-0.1-0.5-0.2c-0.2-0.1-0.3-0.3-0.4-0.4c-0.1-0.2-0.2-0.3-0.2-0.5c0-0.2-0.1-0.4-0.1-0.6l0-0.1V172
					c0.1-0.5,0.1-1,0.2-1.5c0-0.5,0.1-0.9,0.1-1.3c0-0.9-0.1-1.7-0.2-2.3c-0.2-0.6-0.4-1.1-0.7-1.5c-0.3-0.4-0.6-0.7-1-0.8
					c-0.4-0.2-0.9-0.3-1.5-0.3c-1.5,0-2.6,0-3.5,0c-0.9,0-1.4,0-1.7-0.1c-0.1,0-0.2,0-0.3,0c-0.1,0-0.2,0-0.3,0
					c-0.7,0-1.2,0.1-1.7,0.3c-0.5,0.2-0.8,0.4-1.1,0.7c-0.3,0.3-0.5,0.7-0.7,1.3c-0.2,0.5-0.2,1.2-0.2,2c0,0.6,0,1.3,0.2,2.1
					c0.1,0.8,0.3,1.6,0.5,2.5v0l0,0.1l0,0.1c0,0.2,0.1,0.4,0.1,0.6c0,0.2,0,0.4,0,0.6c0,0.5-0.1,0.9-0.2,1.4
					c-0.1,0.4-0.3,0.9-0.5,1.2c-0.2,0.4-0.5,0.7-0.8,1c-0.3,0.3-0.7,0.5-1.1,0.7l-10.6,3.8l-10.6,3.8h0c-0.1,0-0.2,0-0.3,0.1
					c-0.1,0-0.2,0-0.3,0c-0.2,0-0.5-0.1-0.7-0.2c-0.2-0.1-0.4-0.2-0.6-0.4c-0.2-0.2-0.3-0.4-0.4-0.6c-0.1-0.2-0.2-0.5-0.2-0.7
					c-0.2-1-0.5-1.8-0.8-2.5c-0.3-0.7-0.7-1.3-1.1-1.7c-0.4-0.4-0.9-0.8-1.4-1c-0.5-0.2-1.1-0.3-1.8-0.3c-0.1,0-0.2,0-0.3,0
					c-0.1,0-0.2,0-0.3,0c-0.4,0-0.8,0.1-1.2,0.1c-0.4,0-0.8,0-1.3,0c-0.4,0-0.8,0-1.1,0c-0.4,0-0.8,0-1.2-0.1c-0.1,0-0.1,0-0.2,0
					c-0.1,0-0.1,0-0.2,0c-0.5,0-0.8,0.1-1.1,0.2c-0.3,0.1-0.5,0.3-0.7,0.6s-0.4,0.6-0.5,1c-0.1,0.4-0.2,0.9-0.2,1.6
					c0,0.4,0,0.8,0.1,1.2s0.1,0.9,0.2,1.4c0,0.2,0.1,0.5,0.1,0.7c0,0.2,0,0.5,0,0.7c0,0.6-0.1,1.1-0.2,1.6c-0.1,0.5-0.3,1-0.5,1.4
					c-0.2,0.4-0.5,0.8-0.9,1.2c-0.3,0.3-0.7,0.6-1.2,0.7l-7,2.5l-7,2.5c-0.9,0.6-1.7,1.1-2.5,1.4c-0.8,0.3-1.6,0.5-2.4,0.5
					c-0.5,0-1-0.1-1.5-0.2c-0.5-0.1-1-0.4-1.4-0.7c-0.5-0.3-0.9-0.7-1.3-1.1c-0.4-0.4-0.8-0.9-1.2-1.5v0c-0.1-0.2-0.3-0.4-0.5-0.6
					c-0.1-0.2-0.3-0.3-0.5-0.4c-0.1-0.1-0.3-0.2-0.4-0.2s-0.3-0.1-0.4-0.1h-4.6h-4.6c-0.1,0-0.1,0-0.2,0.1c-0.1,0-0.2,0.1-0.2,0.2
					c-0.1,0.1-0.1,0.3-0.2,0.4c0,0.2-0.1,0.4-0.1,0.6l-0.1,144.7l-0.1,144.7l0,78.6l0,78.6c0,0.3,0,0.6-0.1,0.9
					c-0.1,0.3-0.2,0.6-0.4,0.8c-0.2,0.2-0.4,0.4-0.6,0.6c-0.2,0.2-0.5,0.2-0.8,0.3h0h0c0,0-0.4,0-1,0c-0.7,0-1.6,0-2.6,0
					c-1,0-2.2,0-3.4,0c-1.2,0-2.4,0-3.6,0c-0.8,0-1.6,0-2.3,0c-0.7,0-1.2,0-1.6,0.1c0,0,0,0,0,0c0,0,0,0,0,0c0,0,0,0,0,0.1
					c0,0,0,0,0,0.1c-0.1,0.1-0.1,0.1-0.2,0.1c-0.1,0-0.1,0-0.2,0c0,0,0,0,0,0c0,0,0,0,0,0c0,0,0,0.1-0.1,0.1c0,0,0,0.1-0.1,0.1
					c-0.1,0.2-0.2,0.6-0.4,0.9c-0.1,0.4-0.3,0.8-0.5,1.3c-0.3,1-0.7,2.1-1.1,3.4c-0.4,1.3-0.8,2.7-1.3,4.2c-0.9,3-1.8,6.4-2.7,9.7
					c-0.9,3.3-1.6,6.6-2.2,9.4c-0.1,0.4-0.2,0.9-0.3,1.3c0,0.2-0.1,0.5-0.1,0.7c-0.2,0-0.4,0-0.7,0c-0.2,0-0.4,0-0.6,0
					c0.2-0.7,0.3-1.5,0.5-2.2c0.8-3.8,2-8.4,3.2-12.9s2.5-8.8,3.5-11.9c0.3-1.1,0.7-2,1-2.8c0.3-0.8,0.5-1.4,0.8-1.8
					c0-0.1,0.1-0.2,0.2-0.3c0.1-0.1,0.1-0.2,0.2-0.3c0,0,0.1-0.1,0.1-0.1c0,0,0.1-0.1,0.2-0.1c0,0,0,0,0,0c0,0,0,0,0,0l0,0l0,0
					l0.1,0l0.1,0c0,0,0.1,0,0.2,0c0,0,0.1,0,0.2,0c0.1,0,0.3,0,0.5,0c0.2,0,0.4,0,0.6,0c0.4,0,0.9,0,1.5,0c0.6,0,1.2,0,1.9,0
					c2.2,0,4.8,0,6.9,0.1c2.1,0,3.6,0.1,3.8,0.1c0.1,0,0.1,0,0.2-0.1c0.1,0,0.2-0.1,0.3-0.2c0.1-0.1,0.1-0.3,0.2-0.4
					c0-0.2,0.1-0.4,0.1-0.6l0-78.6l0-78.6l0.1-144.7l0.1-144.7c0-0.3,0-0.6,0.1-0.9c0.1-0.3,0.2-0.6,0.4-0.8
					c0.2-0.2,0.4-0.5,0.6-0.6c0.2-0.1,0.5-0.2,0.9-0.2h4.6h4.6c0.3,0,0.5,0,0.8,0.1c0.3,0.1,0.5,0.2,0.7,0.4
					c0.2,0.1,0.4,0.3,0.6,0.6c0.2,0.2,0.4,0.5,0.6,0.7c0.3,0.5,0.7,0.9,1.1,1.3c0.4,0.4,0.7,0.7,1.1,0.9c0.4,0.2,0.7,0.4,1.1,0.5
					c0.4,0.1,0.8,0.2,1.2,0.2c0.6,0,1.3-0.1,2-0.4c0.7-0.3,1.5-0.7,2.3-1.3l0,0l0,0l7.1-2.5l7.1-2.6c0.3-0.1,0.5-0.2,0.7-0.5
					c0.2-0.2,0.4-0.5,0.6-0.9c0.2-0.3,0.3-0.7,0.4-1.1c0.1-0.4,0.1-0.9,0.1-1.3c0-0.2,0-0.4,0-0.6c0-0.2,0-0.4-0.1-0.6
					c-0.1-0.5-0.2-1-0.2-1.5c0-0.5-0.1-0.9-0.1-1.4c0-0.7,0.1-1.3,0.2-1.9c0.1-0.6,0.4-1,0.7-1.5c0.3-0.4,0.7-0.7,1.2-0.9
					c0.5-0.2,1-0.3,1.6-0.3c0.1,0,0.1,0,0.2,0c0.1,0,0.1,0,0.2,0h0c0.4,0,0.8,0,1.1,0.1c0.4,0,0.7,0,1.1,0c0.4,0,0.8,0,1.2,0
					c0.4,0,0.8,0,1.1-0.1h0c0.1,0,0.3,0,0.4,0c0.1,0,0.3,0,0.4,0c0.8,0,1.6,0.1,2.2,0.4c0.7,0.3,1.3,0.7,1.8,1.3
					c0.5,0.6,1,1.2,1.3,2.1c0.4,0.8,0.7,1.7,0.9,2.8c0,0.2,0.1,0.3,0.1,0.4s0.1,0.2,0.2,0.3c0.1,0.1,0.1,0.1,0.2,0.1
					c0.1,0,0.1,0,0.2,0l0.1,0l0.1,0l10.6-3.8l10.6-3.8c0.2-0.1,0.5-0.2,0.7-0.4c0.2-0.2,0.4-0.4,0.5-0.7c0.2-0.3,0.3-0.6,0.4-0.9
					c0.1-0.3,0.1-0.7,0.1-1.1c0-0.1,0-0.3,0-0.4c0-0.1,0-0.3-0.1-0.5l0-0.1l0-0.1c-0.2-0.9-0.4-1.8-0.5-2.6
					c-0.1-0.8-0.2-1.6-0.2-2.2c0-0.9,0.1-1.6,0.3-2.3c0.2-0.7,0.5-1.3,0.9-1.8c0.4-0.5,1-0.8,1.6-1.1c0.6-0.2,1.3-0.3,2.1-0.3
					c0.1,0,0.2,0,0.4,0c0.1,0,0.2,0,0.4,0h0c0.2,0,0.8,0,1.6,0c0.9,0,2,0,3.5,0c0.7,0,1.4,0.1,2,0.4c0.6,0.3,1.1,0.7,1.5,1.2
					c0.4,0.5,0.7,1.2,0.9,2c0.2,0.8,0.3,1.6,0.3,2.6c0,0.4,0,0.9-0.1,1.4c0,0.5-0.1,1-0.2,1.6l0,0v0.1c0,0.1,0,0.2,0,0.2
					c0,0.1,0,0.1,0.1,0.2l0.1,0.1l0.1,0.1h0h0h0l10.4-3.5l10.4-3.5c0.3-0.1,0.6-0.3,0.8-0.5c0.3-0.2,0.5-0.5,0.7-0.8
					c0.2-0.3,0.3-0.7,0.5-1.1c0.1-0.4,0.2-0.8,0.2-1.2c0-0.1,0-0.3,0-0.4c0-0.1,0-0.3,0-0.4c0-0.1,0-0.2,0-0.2c0-0.1,0-0.2-0.1-0.2
					c-0.4-1.3-0.7-2.5-0.9-3.6c-0.2-1.1-0.3-2.2-0.3-3.2c0-0.4,0-0.7,0-1.1c0-0.3,0.1-0.7,0.1-1l0.1-0.3l0-0.3l0.3,0.1l0.3,0.1
					c1.4,0.4,2.6,0.6,3.7,0.8c1.1,0.2,2,0.3,2.7,0.3c0.3,0,0.5,0,0.8,0c0.2,0,0.4-0.1,0.6-0.1c0.3-0.1,0.7-0.2,1-0.2
					c0.3,0,0.7-0.1,1-0.1c0.7,0,1.4,0.1,2,0.3c0.6,0.2,1.2,0.5,1.8,1c0.5,0.4,1,1,1.5,1.6s0.9,1.4,1.2,2.2c0.3,0.6,0.6,1.1,1.1,1.4
					c0.4,0.3,0.9,0.5,1.3,0.5c0.1,0,0.2,0,0.4,0c0.1,0,0.3-0.1,0.4-0.1l8.7-3.3l8.7-3.3c0.6-0.2,1.2-0.7,1.6-1.3
					c0.4-0.6,0.8-1.4,0.9-2.3c0.3-1.5,0.7-2.8,1.2-4c0.6-1.2,1.3-2.1,2.1-2.9c0.9-0.8,1.9-1.4,3-1.8c1.1-0.4,2.4-0.6,3.8-0.7l0.1,0
					h0c0.7,0,1.3,0.2,1.9,0.5c0.6,0.3,1.1,0.8,1.5,1.4c0.4,0.6,0.8,1.2,1,2c0.2,0.7,0.4,1.5,0.4,2.4v0v0v0.1v0v0v0v0
					c-0.6,8.6-1,23.2-1.3,42.2c-0.3,19-0.4,42.4-0.4,68.7c0,18.6,0,37.4,0.1,57s0.2,40.1,0.4,62C509,375.4,508.8,375.4,508.6,375.4z
					"/>
				<path class="st2" d="M509.1,145.5L509.1,145.5c-0.6,8.7-1,23.3-1.3,42.3c-0.3,19-0.4,42.4-0.4,68.7c0,18.6,0,37.4,0.1,57
					s0.2,40.1,0.4,62c0.2,0,0.4,0,0.6,0v298.1l-192.9,1.2c0.1-0.4,0.2-0.9,0.3-1.3c0.6-2.8,1.4-6.1,2.2-9.4c0.9-3.3,1.8-6.7,2.7-9.7
					c0.4-1.5,0.9-2.9,1.3-4.2c0.4-1.3,0.8-2.4,1.1-3.4c0.2-0.5,0.3-0.9,0.5-1.3c0.1-0.4,0.3-0.7,0.4-0.9c0-0.1,0-0.1,0.1-0.1
					c0,0,0-0.1,0.1-0.1c0,0,0,0,0,0c0,0,0,0,0,0c0.1,0,0.2,0,0.2,0c0.1,0,0.1-0.1,0.2-0.1c0,0,0,0,0-0.1c0,0,0,0,0-0.1c0,0,0,0,0,0
					c0,0,0,0,0,0c0.4,0,1,0,1.6-0.1c0.7,0,1.5,0,2.3,0c1.1,0,2.3,0,3.6,0c1.2,0,2.4,0,3.4,0c1,0,2,0,2.6,0c0.6,0,1,0,1,0h0h0
					c0.3,0,0.6-0.1,0.8-0.3c0.2-0.1,0.5-0.3,0.6-0.6c0.2-0.2,0.3-0.5,0.4-0.8c0.1-0.3,0.1-0.6,0.1-0.9l0-78.6l0-78.6l0.1-144.7
					l0.1-144.7c0-0.2,0-0.4,0.1-0.6c0.1-0.2,0.1-0.3,0.2-0.4c0.1-0.1,0.2-0.2,0.2-0.2c0.1,0,0.2-0.1,0.2-0.1h4.6h4.6
					c0.1,0,0.2,0,0.4,0.1s0.3,0.1,0.4,0.2c0.1,0.1,0.3,0.2,0.5,0.4c0.2,0.2,0.3,0.4,0.5,0.6v0c0.4,0.5,0.8,1,1.2,1.5
					c0.4,0.4,0.9,0.8,1.3,1.1c0.5,0.3,0.9,0.5,1.4,0.7c0.5,0.2,1,0.2,1.5,0.2c0.8,0,1.6-0.2,2.4-0.5c0.8-0.3,1.7-0.8,2.5-1.4l7-2.5
					l7-2.5c0.5-0.1,0.9-0.4,1.2-0.7c0.3-0.3,0.6-0.7,0.9-1.2c0.2-0.4,0.4-0.9,0.5-1.4c0.1-0.5,0.2-1.1,0.2-1.6c0-0.2,0-0.5,0-0.7
					c0-0.2-0.1-0.5-0.1-0.7c-0.1-0.5-0.2-1-0.2-1.4s-0.1-0.9-0.1-1.2c0-0.6,0.1-1.1,0.2-1.6c0.1-0.4,0.3-0.8,0.5-1s0.4-0.4,0.7-0.6
					c0.3-0.1,0.7-0.2,1.1-0.2c0.1,0,0.1,0,0.2,0c0.1,0,0.1,0,0.2,0c0.4,0,0.8,0.1,1.2,0.1c0.4,0,0.8,0,1.1,0c0.4,0,0.9,0,1.3,0
					c0.4,0,0.8-0.1,1.2-0.1c0.1,0,0.2,0,0.3,0c0.1,0,0.2,0,0.3,0c0.7,0,1.2,0.1,1.8,0.3c0.5,0.2,1,0.5,1.4,1c0.4,0.4,0.8,1,1.1,1.7
					c0.3,0.7,0.6,1.6,0.8,2.5c0,0.2,0.1,0.5,0.2,0.7c0.1,0.2,0.2,0.4,0.4,0.6c0.2,0.2,0.4,0.3,0.6,0.4c0.2,0.1,0.4,0.2,0.7,0.2
					c0.1,0,0.2,0,0.3,0c0.1,0,0.2,0,0.3-0.1h0l10.6-3.8l10.6-3.8c0.4-0.1,0.8-0.4,1.1-0.7c0.3-0.3,0.6-0.6,0.8-1
					c0.2-0.4,0.4-0.8,0.5-1.2c0.1-0.4,0.2-0.9,0.2-1.4c0-0.2,0-0.4,0-0.6c0-0.2,0-0.4-0.1-0.6l0-0.1l0-0.1v0
					c-0.2-0.9-0.4-1.7-0.5-2.5c-0.1-0.8-0.2-1.5-0.2-2.1c0-0.8,0.1-1.4,0.2-2c0.1-0.5,0.4-1,0.7-1.3c0.3-0.3,0.7-0.6,1.1-0.7
					c0.5-0.2,1-0.3,1.7-0.3c0.1,0,0.2,0,0.3,0c0.1,0,0.2,0,0.3,0c0.3,0,0.9,0,1.7,0.1c0.9,0,2,0,3.5,0c0.6,0,1.1,0.1,1.5,0.3
					c0.4,0.2,0.7,0.5,1,0.8c0.3,0.4,0.5,0.9,0.7,1.5c0.1,0.6,0.2,1.4,0.2,2.3c0,0.4,0,0.9-0.1,1.3c0,0.5-0.1,1-0.2,1.5v0.1l0,0.1
					c0,0.2,0,0.4,0.1,0.6c0.1,0.2,0.1,0.4,0.2,0.5c0.1,0.2,0.2,0.3,0.4,0.4c0.1,0.1,0.3,0.2,0.5,0.2l0.1,0l0.1,0c0.1,0,0.1,0,0.2,0
					c0.1,0,0.1,0,0.2-0.1v0l0,0l10.4-3.5l10.4-3.5c0.5-0.2,0.9-0.4,1.2-0.7c0.4-0.3,0.7-0.7,0.9-1.1c0.2-0.4,0.4-0.9,0.6-1.4
					s0.2-1,0.2-1.6c0-0.2,0-0.3,0-0.5c0-0.2,0-0.3-0.1-0.5c0-0.1,0-0.2-0.1-0.3c0-0.1,0-0.2-0.1-0.3c-0.4-1.2-0.7-2.4-0.8-3.5
					c-0.2-1.1-0.3-2.1-0.3-3c0-0.2,0-0.4,0-0.6c0-0.2,0-0.4,0-0.6c1.2,0.3,2.4,0.5,3.4,0.7c1,0.2,1.9,0.2,2.6,0.2c0.3,0,0.6,0,0.9,0
					c0.3,0,0.5-0.1,0.8-0.1c0.3-0.1,0.6-0.1,0.9-0.2c0.3,0,0.6-0.1,0.8-0.1c0.6,0,1.1,0.1,1.6,0.3c0.5,0.2,1,0.4,1.4,0.8
					c0.4,0.3,0.9,0.8,1.3,1.3c0.4,0.6,0.8,1.2,1.1,2c0.3,0.8,0.9,1.4,1.5,1.9c0.6,0.5,1.3,0.7,2.1,0.7c0.2,0,0.4,0,0.6,0
					s0.4-0.1,0.6-0.2h0l8.7-3.3l8.7-3.3c0.9-0.3,1.6-0.9,2.2-1.7c0.6-0.8,1-1.7,1.1-2.8c0.2-1.4,0.6-2.6,1.1-3.7
					c0.5-1,1.1-1.9,1.8-2.6c0.7-0.7,1.6-1.2,2.6-1.6c1-0.4,2.1-0.6,3.4-0.6h0h0c0.5,0,0.9,0.1,1.3,0.4c0.4,0.2,0.8,0.6,1.1,1
					c0.3,0.4,0.6,1,0.8,1.6C509,144,509.1,144.7,509.1,145.5L509.1,145.5z M500.2,305.4L500.2,305.4l0-12.5l0-12.5
					c0-0.5-0.1-1-0.2-1.5c-0.1-0.5-0.4-0.9-0.6-1.2c-0.3-0.4-0.6-0.7-1-0.9c-0.4-0.2-0.8-0.3-1.3-0.3h0l-2.4,0l-2.4,0
					c-0.5,0-0.9,0.1-1.3,0.3c-0.4,0.2-0.7,0.5-1,0.9c-0.3,0.4-0.5,0.8-0.6,1.2c-0.1,0.4-0.2,1-0.2,1.5v0v0v0l0,12.5l0,12.5
					c0,0.5,0.1,1,0.2,1.5c0.1,0.5,0.4,0.9,0.6,1.2c0.3,0.4,0.6,0.7,1,0.9c0.4,0.2,0.8,0.3,1.3,0.3h0l2.4,0l2.4,0
					c0.5,0,0.9-0.1,1.3-0.3c0.4-0.2,0.7-0.5,1-0.9c0.3-0.4,0.5-0.8,0.6-1.2C500.2,306.4,500.2,305.9,500.2,305.4z M500.2,246.6
					L500.2,246.6L500.2,246.6l-0.2-13.5l-0.2-13.4c0-0.4-0.1-0.7-0.2-1.1c-0.1-0.3-0.3-0.6-0.5-0.9c-0.2-0.3-0.4-0.5-0.7-0.7
					c-0.3-0.2-0.6-0.3-1-0.3h0h0l-2.9,0.1l-2.9,0.1c-0.3,0-0.7,0.1-1,0.3c-0.3,0.2-0.5,0.4-0.7,0.7c-0.2,0.3-0.3,0.6-0.5,0.9
					c-0.1,0.3-0.1,0.7-0.1,1.1v0v0l0.2,13.4l0.2,13.4c0,0.4,0.1,0.7,0.2,1.1c0.1,0.3,0.3,0.6,0.5,0.9c0.2,0.3,0.4,0.5,0.7,0.7
					c0.3,0.2,0.6,0.3,1,0.3h0h0l2.9-0.1l2.9-0.1c0.3,0,0.7-0.1,1-0.3c0.3-0.2,0.5-0.4,0.7-0.7c0.2-0.3,0.3-0.6,0.4-0.9
					C500.2,247.4,500.2,247,500.2,246.6z M500.2,339.7L500.2,339.7L500.2,339.7c0-0.5-0.1-1-0.2-1.4c-0.1-0.4-0.3-0.8-0.6-1.1
					c-0.2-0.3-0.6-0.6-0.9-0.8c-0.4-0.2-0.8-0.3-1.2-0.3l-2.6,0l-2.6,0h0c-0.4,0-0.8,0.1-1.2,0.3c-0.4,0.2-0.7,0.5-0.9,0.8
					s-0.4,0.7-0.6,1.1s-0.2,0.9-0.2,1.4l0,12.8l0,12.8v0c0,0.5,0.1,1,0.2,1.4c0.1,0.4,0.3,0.8,0.6,1.1c0.2,0.3,0.5,0.6,0.9,0.8
					c0.4,0.2,0.8,0.3,1.2,0.3l2.6,0l2.6,0c0.4,0,0.8-0.1,1.2-0.3c0.3-0.2,0.7-0.5,0.9-0.8s0.4-0.7,0.6-1.1c0.1-0.4,0.2-0.9,0.2-1.4
					l0-12.8L500.2,339.7z M461.6,455.7L461.6,455.7L461.6,455.7c0-0.6-0.1-1-0.2-1.5c-0.1-0.4-0.3-0.8-0.6-1.2
					c-0.2-0.3-0.6-0.6-0.9-0.9c-0.4-0.2-0.8-0.3-1.2-0.4l-2.6-0.1l-2.6-0.1h0h0c-0.4,0-0.8,0.1-1.2,0.3c-0.4,0.2-0.7,0.5-0.9,0.8
					c-0.2,0.3-0.5,0.7-0.6,1.2c-0.1,0.4-0.2,0.9-0.2,1.4l-0.2,12.5l-0.2,12.5v0v0c0,0.5,0.1,1,0.2,1.4c0.1,0.4,0.3,0.8,0.6,1.2
					c0.2,0.3,0.5,0.6,0.9,0.9c0.4,0.2,0.8,0.3,1.2,0.4l2.6,0.1l2.6,0.1h0h0c0.4,0,0.8-0.1,1.2-0.3c0.4-0.2,0.7-0.5,0.9-0.8
					c0.2-0.3,0.5-0.7,0.6-1.2c0.1-0.4,0.2-0.9,0.2-1.4v0l0.2-12.5L461.6,455.7z M461.4,365.8L461.4,365.8L461.4,365.8l-0.2-13.5
					l-0.2-13.4c0-0.4-0.1-0.7-0.2-1.1c-0.1-0.3-0.3-0.6-0.5-0.9c-0.2-0.3-0.4-0.5-0.7-0.6c-0.3-0.2-0.6-0.3-1-0.3h0h0l-2.9,0.1
					l-2.9,0.1c-0.3,0-0.7,0.1-1,0.3c-0.3,0.2-0.5,0.4-0.7,0.7c-0.2,0.3-0.3,0.6-0.4,0.9c-0.1,0.3-0.2,0.7-0.2,1.1v0v0l0.2,13.4
					l0.2,13.4c0,0.4,0.1,0.7,0.2,1.1c0.1,0.3,0.3,0.6,0.5,0.9c0.2,0.3,0.4,0.5,0.7,0.6c0.3,0.2,0.6,0.3,1,0.3h0h0l2.9-0.1l2.9-0.1
					c0.3,0,0.7-0.1,1-0.3c0.3-0.2,0.5-0.4,0.7-0.7c0.2-0.3,0.3-0.6,0.4-0.9C461.3,366.5,461.4,366.2,461.4,365.8z M461.2,246.8
					L461.2,246.8L461.2,246.8l-0.1-13.6l-0.1-13.5c0-0.4-0.1-0.7-0.2-1c-0.1-0.3-0.3-0.6-0.4-0.9c-0.2-0.3-0.4-0.5-0.7-0.6
					c-0.3-0.2-0.6-0.3-0.9-0.3h0h0l-2.9,0l-2.9,0c-0.3,0-0.7,0.1-0.9,0.3c-0.3,0.2-0.5,0.4-0.7,0.7c-0.2,0.3-0.3,0.6-0.4,0.9
					c-0.1,0.3-0.1,0.7-0.1,1v0l0.1,13.5l0.1,13.5c0,0.4,0.1,0.7,0.2,1c0.1,0.3,0.3,0.6,0.4,0.9c0.2,0.2,0.4,0.5,0.7,0.6
					c0.3,0.1,0.6,0.2,0.9,0.2h0h0l2.9,0l2.9,0c0.3,0,0.7-0.1,1-0.3c0.3-0.2,0.5-0.4,0.7-0.7c0.2-0.3,0.3-0.6,0.4-0.9
					C461.2,247.5,461.2,247.1,461.2,246.8z M461.2,540.6L461.2,540.6L461.2,540.6l-0.1-12.9l-0.1-12.9c0-0.4-0.1-0.8-0.2-1.2
					c-0.1-0.4-0.3-0.7-0.5-1s-0.5-0.6-0.8-0.7c-0.3-0.2-0.7-0.3-1.1-0.3h0h0l-2.7,0l-2.7,0c-0.4,0-0.7,0.1-1.1,0.3
					c-0.3,0.2-0.6,0.4-0.8,0.7c-0.2,0.3-0.4,0.7-0.5,1c-0.1,0.4-0.2,0.8-0.2,1.2v0v0l0.1,12.9l0.1,12.9c0,0.4,0.1,0.8,0.2,1.2
					c0.1,0.4,0.3,0.7,0.5,1c0.2,0.3,0.5,0.6,0.8,0.7c0.3,0.2,0.7,0.3,1.1,0.3h0l2.7,0l2.7,0c0.4,0,0.8-0.1,1.1-0.3
					c0.3-0.2,0.6-0.4,0.8-0.8c0.2-0.3,0.4-0.6,0.5-1C461.1,541.4,461.2,541,461.2,540.6z M461.1,398.7L461.1,398.7
					c0-0.4-0.1-0.8-0.2-1.1s-0.3-0.7-0.5-1c-0.2-0.3-0.5-0.5-0.8-0.7c-0.3-0.2-0.7-0.3-1-0.3l-2.8,0h-2.8h0c-0.4,0-0.7,0.1-1,0.3
					c-0.3,0.2-0.6,0.4-0.8,0.7c-0.2,0.3-0.4,0.6-0.5,1c-0.1,0.4-0.2,0.8-0.2,1.1v0l0,13.3l0,13.3c0,0.4,0.1,0.8,0.2,1.2
					s0.3,0.7,0.5,1c0.2,0.3,0.5,0.5,0.8,0.7c0.3,0.2,0.6,0.3,1,0.3l2.8,0l2.8,0l0,0h0c0.4,0,0.7-0.1,1-0.3c0.3-0.2,0.6-0.4,0.8-0.7
					c0.2-0.3,0.4-0.6,0.5-1c0.1-0.4,0.2-0.7,0.2-1.1l0-13.3L461.1,398.7z M461.1,306.2L461.1,306.2l0-13.3l0-13.3
					c0-0.4,0-0.8-0.2-1.1c-0.1-0.3-0.3-0.7-0.5-1c-0.2-0.3-0.5-0.5-0.8-0.7c-0.3-0.2-0.6-0.3-1-0.3h0l-2.8,0H453
					c-0.4,0-0.7,0.1-1,0.3c-0.3,0.2-0.6,0.4-0.8,0.7s-0.4,0.6-0.5,1c-0.1,0.4-0.2,0.7-0.2,1.1v0l0,13.3l0,13.3
					c0,0.4,0.1,0.8,0.2,1.1c0.1,0.4,0.3,0.7,0.5,1c0.2,0.3,0.5,0.5,0.8,0.7s0.6,0.3,1,0.3l2.8,0h2.8c0.4,0,0.7-0.1,1-0.3
					c0.3-0.2,0.6-0.4,0.8-0.7c0.2-0.3,0.4-0.6,0.5-1S461.1,306.6,461.1,306.2z M422.8,540.1L422.8,540.1L422.8,540.1l-0.1-12.5
					l-0.1-12.5c0-0.5-0.1-1-0.2-1.5c-0.1-0.4-0.3-0.9-0.6-1.2c-0.3-0.4-0.6-0.7-1-0.9c-0.4-0.2-0.8-0.3-1.2-0.3h0h0l-2.4,0l-2.4,0
					c-0.4,0-0.9,0.1-1.2,0.3c-0.4,0.2-0.7,0.5-1,0.9c-0.3,0.4-0.5,0.8-0.6,1.2c-0.1,0.5-0.2,0.9-0.2,1.5v0v0l0.1,12.5l0.1,12.5
					c0,0.5,0.1,1,0.2,1.5c0.1,0.4,0.4,0.9,0.6,1.2c0.3,0.3,0.6,0.6,1,0.9c0.4,0.2,0.8,0.3,1.2,0.3h0h0l2.4,0l2.4,0
					c0.5,0,0.9-0.1,1.2-0.3c0.4-0.2,0.7-0.5,1-0.9c0.3-0.4,0.5-0.8,0.6-1.2C422.7,541.1,422.8,540.6,422.8,540.1z M422.8,222
					L422.8,222L422.8,222c0-0.8-0.1-1.4-0.3-2c-0.2-0.6-0.4-1.1-0.8-1.6c-0.3-0.5-0.7-0.8-1.2-1.1c-0.5-0.3-1-0.4-1.5-0.5l-1.5,0
					l-1.5,0h0h0c-0.6,0-1.1,0.1-1.5,0.4c-0.5,0.3-0.9,0.6-1.2,1.1c-0.3,0.4-0.6,1-0.8,1.6c-0.2,0.6-0.3,1.2-0.3,1.9l-0.1,11.8
					l-0.1,11.8v0l0,0c0,0.7,0.1,1.3,0.3,1.9c0.2,0.6,0.4,1.1,0.8,1.6s0.7,0.9,1.2,1.1c0.5,0.3,1,0.4,1.5,0.5l1.5,0l1.5,0h0h0
					c0.6,0,1.1-0.2,1.5-0.4c0.5-0.3,0.9-0.6,1.2-1.1c0.3-0.5,0.6-1,0.8-1.6s0.3-1.2,0.3-1.9l0.1-11.8L422.8,222z M422.7,340.3
					L422.7,340.3c0-0.6-0.1-1.1-0.2-1.6c-0.1-0.5-0.4-1-0.7-1.3c-0.3-0.4-0.6-0.7-1-1c-0.4-0.2-0.9-0.4-1.3-0.4l-2.1,0h-2.1h0
					c-0.5,0-0.9,0.1-1.3,0.4c-0.4,0.2-0.8,0.6-1,1c-0.3,0.4-0.5,0.8-0.7,1.3c-0.1,0.5-0.2,1-0.2,1.6l0,12.4l0,12.4v0
					c0,0.6,0.1,1.1,0.2,1.6c0.1,0.5,0.4,1,0.7,1.3c0.3,0.4,0.6,0.7,1,1c0.4,0.2,0.9,0.4,1.3,0.4h2.1l2.1,0c0.5,0,1-0.1,1.3-0.4
					c0.4-0.2,0.8-0.6,1-0.9c0.3-0.4,0.5-0.9,0.7-1.3s0.2-1,0.2-1.6l0-12.4L422.7,340.3z M422.7,399.8L422.7,399.8L422.7,399.8
					c0-0.6-0.1-1.1-0.2-1.6c-0.1-0.5-0.4-0.9-0.6-1.3c-0.3-0.4-0.6-0.7-1-0.9c-0.4-0.2-0.8-0.4-1.3-0.4h0l-2.2,0l-2.2,0h0h0
					c-0.5,0-0.9,0.1-1.3,0.4c-0.4,0.2-0.7,0.5-1,0.9c-0.3,0.4-0.5,0.8-0.7,1.3c-0.1,0.5-0.2,1-0.2,1.5l-0.1,12.3l-0.1,12.3v0v0
					c0,0.5,0.1,1.1,0.2,1.5c0.1,0.5,0.4,0.9,0.6,1.3s0.6,0.7,1,0.9c0.4,0.2,0.8,0.4,1.3,0.4l2.2,0l2.2,0h0h0h0
					c0.5,0,0.9-0.1,1.3-0.4c0.4-0.2,0.7-0.5,1-0.9c0.3-0.4,0.5-0.8,0.7-1.3c0.1-0.5,0.2-1,0.2-1.5l0.1-12.3L422.7,399.8z
					 M422.6,480.3V468v-12.3c0-0.5-0.1-1.1-0.2-1.5c-0.1-0.5-0.4-0.9-0.6-1.3c-0.3-0.4-0.6-0.7-1-0.9c-0.4-0.2-0.8-0.4-1.3-0.4h-2.2
					H415c-0.5,0-0.9,0.1-1.3,0.4c-0.4,0.2-0.7,0.5-1,0.9c-0.3,0.4-0.5,0.8-0.6,1.3c-0.1,0.5-0.2,1-0.2,1.5V468v12.3
					c0,0.5,0.1,1.1,0.2,1.5c0.1,0.5,0.4,0.9,0.6,1.3c0.3,0.4,0.6,0.7,1,0.9c0.4,0.2,0.8,0.4,1.3,0.4h2.2h2.2c0.5,0,0.9-0.1,1.3-0.4
					c0.4-0.2,0.7-0.5,1-0.9c0.3-0.4,0.5-0.8,0.6-1.3C422.6,481.3,422.6,480.8,422.6,480.3z M422.5,306.2v-12.9v-12.9
					c0-0.5-0.1-1-0.2-1.5c-0.1-0.5-0.4-0.9-0.6-1.2c-0.3-0.4-0.6-0.7-1-0.9c-0.4-0.2-0.8-0.3-1.2-0.3h-2.2H415
					c-0.5,0-0.9,0.1-1.3,0.3c-0.4,0.2-0.7,0.5-1,0.9c-0.3,0.4-0.5,0.8-0.6,1.2c-0.1,0.5-0.2,1-0.2,1.5v12.9v12.9
					c0,0.5,0.1,1,0.2,1.5c0.1,0.5,0.3,0.9,0.6,1.2c0.3,0.4,0.6,0.7,1,0.9c0.4,0.2,0.8,0.3,1.3,0.3h2.2h2.2c0.5,0,0.9-0.1,1.2-0.3
					c0.4-0.2,0.7-0.5,1-0.9c0.3-0.4,0.5-0.8,0.6-1.2C422.4,307.2,422.5,306.7,422.5,306.2z M384.1,366L384.1,366L384.1,366
					l-0.2-13.7l-0.2-13.6c0-0.4-0.1-0.7-0.2-1c-0.1-0.3-0.2-0.6-0.4-0.9c-0.2-0.2-0.4-0.5-0.7-0.6c-0.3-0.1-0.6-0.2-0.9-0.2h0h0
					l-3,0.1l-3,0.1c-0.3,0-0.6,0.1-0.9,0.3c-0.3,0.2-0.5,0.4-0.7,0.6c-0.2,0.3-0.3,0.5-0.4,0.9c-0.1,0.3-0.1,0.7-0.1,1v0v0l0.2,13.6
					l0.2,13.6c0,0.4,0.1,0.7,0.2,1c0.1,0.3,0.2,0.6,0.4,0.9c0.2,0.2,0.4,0.5,0.7,0.6c0.3,0.2,0.6,0.2,0.9,0.2h0h0l3-0.1l3-0.1
					c0.3,0,0.6-0.1,0.9-0.3c0.3-0.2,0.5-0.4,0.7-0.6c0.2-0.2,0.3-0.5,0.4-0.9C384,366.7,384.1,366.3,384.1,366z M384,279.6
					L384,279.6L384,279.6c0-0.4-0.1-0.8-0.2-1.1c-0.1-0.3-0.3-0.7-0.5-1c-0.2-0.3-0.4-0.5-0.7-0.7s-0.6-0.3-1-0.3l-2.8,0l-2.8-0.1h0
					h0c-0.4,0-0.7,0.1-1,0.3c-0.3,0.2-0.6,0.4-0.8,0.7c-0.2,0.3-0.4,0.6-0.5,0.9c-0.1,0.3-0.2,0.7-0.2,1.1l-0.1,13.3l-0.1,13.3v0v0
					c0,0.4,0,0.8,0.2,1.1c0.1,0.3,0.3,0.7,0.5,1c0.2,0.3,0.4,0.5,0.7,0.7c0.3,0.2,0.6,0.3,1,0.3l2.8,0l2.8,0h0h0
					c0.4,0,0.7-0.1,1-0.3c0.3-0.2,0.6-0.4,0.8-0.7c0.2-0.3,0.4-0.6,0.5-0.9c0.1-0.3,0.2-0.7,0.2-1.1v0l0.1-13.3L384,279.6z
					 M384,398.5L384,398.5c0-0.4,0-0.7-0.1-1c-0.1-0.3-0.2-0.6-0.4-0.9c-0.2-0.3-0.4-0.5-0.7-0.6c-0.3-0.2-0.6-0.3-0.9-0.3l-2.9-0.1
					l-2.9,0h0h0c-0.3,0-0.7,0.1-0.9,0.2c-0.3,0.2-0.5,0.4-0.7,0.6c-0.2,0.3-0.3,0.6-0.4,0.9c-0.1,0.3-0.2,0.7-0.2,1l-0.1,13.6
					l-0.1,13.6v0v0c0,0.4,0.1,0.7,0.2,1c0.1,0.3,0.2,0.6,0.4,0.9c0.2,0.2,0.4,0.5,0.7,0.6c0.3,0.2,0.6,0.3,0.9,0.3l2.9,0.1l2.9,0h0
					h0h0c0.3,0,0.7-0.1,0.9-0.2s0.5-0.4,0.7-0.6s0.3-0.5,0.4-0.9c0.1-0.3,0.2-0.7,0.2-1l0.1-13.6L384,398.5L384,398.5z M383.9,219.9
					L383.9,219.9L383.9,219.9c0-0.4-0.1-0.8-0.2-1.1c-0.1-0.3-0.3-0.6-0.5-0.9c-0.2-0.3-0.4-0.5-0.7-0.7c-0.3-0.2-0.6-0.3-1-0.3
					l-2.8,0l-2.8,0h0c-0.4,0-0.7,0.1-1,0.3c-0.3,0.2-0.5,0.4-0.7,0.7c-0.2,0.3-0.3,0.6-0.5,0.9c-0.1,0.3-0.2,0.7-0.2,1.1l0,13.4
					l-0.1,13.5v0c0,0.4,0.1,0.7,0.2,1.1c0.1,0.3,0.3,0.6,0.5,0.9c0.2,0.3,0.4,0.5,0.7,0.7c0.3,0.2,0.6,0.3,1,0.3l2.8,0l2.8,0h0
					c0.3,0,0.7-0.1,1-0.3c0.3-0.2,0.5-0.4,0.7-0.7c0.2-0.3,0.4-0.6,0.5-0.9c0.1-0.3,0.2-0.7,0.2-1.1l0-13.4L383.9,219.9z
					 M383.8,514.2L383.8,514.2c0-0.4,0-0.8-0.2-1.1c-0.1-0.3-0.3-0.7-0.5-0.9c-0.2-0.3-0.5-0.5-0.7-0.7c-0.3-0.2-0.6-0.3-1-0.3
					l-2.8,0l-2.8,0h0c-0.3,0-0.7,0.1-1,0.3c-0.3,0.2-0.5,0.4-0.7,0.7c-0.2,0.3-0.4,0.6-0.5,0.9c-0.1,0.3-0.2,0.7-0.2,1.1l0,13.4
					l0,13.4v0c0,0.4,0,0.8,0.2,1.1c0.1,0.3,0.3,0.7,0.5,0.9c0.2,0.3,0.5,0.5,0.7,0.7c0.3,0.2,0.6,0.3,1,0.3l2.8,0l2.8,0h0
					c0.3,0,0.7-0.1,1-0.3c0.3-0.2,0.5-0.4,0.7-0.7s0.3-0.6,0.5-0.9c0.1-0.3,0.2-0.7,0.2-1.1l0-13.4L383.8,514.2z M383.7,481.9
					L383.7,481.9l0-13.8l0-13.8c0-0.3,0-0.6-0.1-0.9s-0.2-0.5-0.4-0.8c-0.2-0.2-0.4-0.4-0.6-0.6c-0.2-0.1-0.5-0.2-0.8-0.2l-3.2,0
					h-3.2c-0.3,0-0.6,0.1-0.8,0.2c-0.2,0.1-0.5,0.3-0.6,0.6s-0.3,0.5-0.4,0.8c-0.1,0.3-0.1,0.6-0.1,0.9l0,13.8l0,13.8
					c0,0.3,0,0.6,0.1,0.9c0.1,0.3,0.2,0.5,0.4,0.8c0.2,0.2,0.4,0.4,0.6,0.6c0.2,0.1,0.5,0.2,0.8,0.2h0l3.2,0l3.2,0
					c0.3,0,0.6-0.1,0.8-0.2c0.2-0.1,0.4-0.3,0.6-0.6c0.2-0.2,0.3-0.5,0.4-0.8C383.6,482.5,383.7,482.2,383.7,481.9z"/>
				<path d="M492.4,277.7c-0.2,0-0.4,0.1-0.6,0.2c-0.2,0.1-0.4,0.3-0.6,0.5c-0.2,0.2-0.3,0.5-0.4,0.9c-0.1,0.3-0.2,0.7-0.2,1.1v0
					l0,12.5l0,12.5c0,0.4,0.1,0.8,0.2,1.1c0.1,0.3,0.2,0.6,0.4,0.9c0.2,0.2,0.4,0.4,0.6,0.5c0.2,0.1,0.4,0.2,0.6,0.2l2.4,0l2.4,0
					c0.2,0,0.4-0.1,0.6-0.2c0.2-0.1,0.4-0.3,0.6-0.5c0.2-0.2,0.3-0.5,0.4-0.9c0.1-0.3,0.2-0.7,0.2-1.1v0l0-12.5l0-12.5
					c0-0.4-0.1-0.8-0.2-1.1c-0.1-0.3-0.2-0.6-0.4-0.9c-0.2-0.2-0.4-0.4-0.6-0.5c-0.2-0.1-0.4-0.2-0.6-0.2h0l-2.4,0L492.4,277.7z
					 M500.2,305.4L500.2,305.4c0,0.5-0.1,1-0.2,1.5c-0.1,0.5-0.3,0.9-0.6,1.2c-0.3,0.4-0.6,0.7-1,0.9c-0.4,0.2-0.8,0.3-1.3,0.3
					l-2.4,0l-2.4,0h0c-0.5,0-0.9-0.1-1.3-0.3c-0.4-0.2-0.7-0.5-1-0.9c-0.3-0.4-0.5-0.8-0.6-1.2c-0.1-0.5-0.2-1-0.2-1.5l0-12.5
					l0-12.5v0v0v0c0-0.5,0.1-1,0.2-1.5c0.1-0.5,0.3-0.9,0.6-1.2c0.3-0.4,0.6-0.7,1-0.9c0.4-0.2,0.8-0.3,1.3-0.3l2.4,0l2.4,0h0
					c0.5,0,0.9,0.1,1.3,0.3c0.4,0.2,0.7,0.5,1,0.9c0.3,0.4,0.5,0.8,0.6,1.2c0.1,0.5,0.2,1,0.2,1.5l0,12.5L500.2,305.4z"/>
				<path d="M491.6,217l2.9-0.1l2.9-0.1h0h0c0.3,0,0.7,0.1,1,0.3c0.3,0.2,0.5,0.4,0.7,0.7c0.2,0.3,0.4,0.6,0.5,0.9
					c0.1,0.3,0.2,0.7,0.2,1.1l0.2,13.4l0.2,13.4v0v0c0,0.4-0.1,0.7-0.2,1.1c-0.1,0.3-0.3,0.6-0.4,0.9c-0.2,0.3-0.4,0.5-0.7,0.7
					c-0.3,0.2-0.6,0.3-1,0.3l-2.9,0.1l-2.9,0.1h0h0c-0.4,0-0.7-0.1-1-0.3c-0.3-0.2-0.5-0.4-0.7-0.7c-0.2-0.3-0.4-0.6-0.5-0.9
					c-0.1-0.3-0.2-0.7-0.2-1.1l-0.2-13.4l-0.2-13.4v0v0c0-0.4,0-0.7,0.1-1.1c0.1-0.3,0.3-0.6,0.5-0.9c0.2-0.3,0.4-0.5,0.7-0.7
					C491,217.1,491.3,217,491.6,217z M499,246.6L499,246.6L499,246.6l-0.2-13.5l-0.2-13.4c0-0.3,0-0.5-0.1-0.7
					c-0.1-0.2-0.2-0.4-0.3-0.6c-0.1-0.1-0.2-0.2-0.3-0.3c-0.1-0.1-0.2-0.1-0.4-0.1h0h0l-2.9,0.1l-2.9,0.1c-0.1,0-0.2,0-0.4,0.1
					c-0.1,0.1-0.2,0.2-0.3,0.3c-0.1,0.2-0.2,0.3-0.3,0.6c-0.1,0.2-0.1,0.5-0.1,0.7v0v0l0.2,13.4l0.2,13.4c0,0.3,0,0.5,0.1,0.7
					c0.1,0.2,0.2,0.4,0.3,0.6s0.2,0.2,0.4,0.3c0.1,0.1,0.2,0.1,0.4,0.1h0l2.9-0.1l2.9-0.1c0.1,0,0.2,0,0.4-0.1
					c0.1-0.1,0.2-0.2,0.3-0.3s0.2-0.3,0.3-0.6C499,247.1,499,246.9,499,246.6z"/>
				<path d="M500.2,339.7L500.2,339.7l0,12.8l0,12.8c0,0.5-0.1,0.9-0.2,1.4c-0.1,0.4-0.3,0.8-0.6,1.1s-0.6,0.6-0.9,0.8
					c-0.4,0.2-0.8,0.3-1.2,0.3l-2.6,0l-2.6,0c-0.4,0-0.8-0.1-1.2-0.3c-0.3-0.2-0.7-0.5-0.9-0.8c-0.2-0.3-0.4-0.7-0.6-1.1
					c-0.1-0.4-0.2-0.9-0.2-1.4v0l0-12.8l0-12.8c0-0.5,0.1-1,0.2-1.4s0.3-0.8,0.6-1.1s0.6-0.6,0.9-0.8c0.3-0.2,0.7-0.3,1.2-0.3h0
					l2.6,0l2.6,0c0.4,0,0.8,0.1,1.2,0.3c0.3,0.2,0.7,0.5,0.9,0.8c0.2,0.3,0.4,0.7,0.6,1.1C500.1,338.8,500.2,339.2,500.2,339.7
					L500.2,339.7z M499,339.7L499,339.7L499,339.7c0-0.4,0-0.7-0.1-1c-0.1-0.3-0.2-0.6-0.4-0.8c-0.2-0.2-0.3-0.4-0.5-0.5
					c-0.2-0.1-0.4-0.2-0.6-0.2l-2.6,0l-2.6,0c-0.2,0-0.4,0-0.6,0.2c-0.2,0.1-0.4,0.3-0.5,0.5c-0.2,0.2-0.3,0.5-0.4,0.8
					c-0.1,0.3-0.1,0.6-0.1,1l0,12.8l0,12.8v0c0,0.4,0,0.7,0.1,1c0.1,0.3,0.2,0.6,0.4,0.8c0.2,0.2,0.3,0.4,0.5,0.5
					c0.2,0.1,0.4,0.2,0.6,0.2l2.6,0l2.6,0c0.2,0,0.4-0.1,0.6-0.2c0.2-0.1,0.4-0.3,0.5-0.5c0.2-0.2,0.3-0.5,0.4-0.8
					c0.1-0.3,0.1-0.6,0.1-1l0-12.8L499,339.7z"/>
				<path d="M461.6,455.7L461.6,455.7l-0.2,12.6l-0.2,12.5v0c0,0.5-0.1,1-0.2,1.4c-0.1,0.4-0.3,0.8-0.6,1.2
					c-0.3,0.3-0.6,0.6-0.9,0.8c-0.4,0.2-0.8,0.3-1.2,0.3h0h0l-2.6-0.1l-2.6-0.1c-0.4,0-0.8-0.1-1.2-0.4c-0.4-0.2-0.7-0.5-0.9-0.9
					c-0.2-0.3-0.4-0.7-0.6-1.2c-0.1-0.4-0.2-0.9-0.2-1.4v0v0l0.2-12.5l0.2-12.5c0-0.5,0.1-1,0.2-1.4c0.1-0.4,0.3-0.8,0.6-1.2
					c0.3-0.3,0.6-0.6,0.9-0.8c0.4-0.2,0.8-0.3,1.2-0.3h0h0l2.6,0.1l2.6,0.1c0.4,0,0.8,0.1,1.2,0.4c0.4,0.2,0.7,0.5,0.9,0.9
					c0.2,0.3,0.4,0.8,0.6,1.2C461.5,454.7,461.6,455.1,461.6,455.7L461.6,455.7z M460.3,455.7L460.3,455.7L460.3,455.7
					c0-0.4-0.1-0.8-0.2-1.1c-0.1-0.3-0.2-0.6-0.4-0.8c-0.2-0.2-0.3-0.4-0.5-0.5c-0.2-0.1-0.4-0.2-0.6-0.2l-2.6-0.1l-2.6-0.1h0h0
					c-0.2,0-0.4,0.1-0.6,0.2c-0.2,0.1-0.4,0.3-0.5,0.5c-0.2,0.2-0.3,0.5-0.4,0.8c-0.1,0.3-0.2,0.7-0.2,1l-0.2,12.5l-0.2,12.5v0v0
					c0,0.4,0,0.7,0.1,1c0.1,0.3,0.2,0.6,0.4,0.8s0.3,0.4,0.5,0.5c0.2,0.1,0.4,0.2,0.6,0.2l2.6,0.1l2.6,0.1h0h0c0.2,0,0.4,0,0.6-0.2
					c0.2-0.1,0.4-0.3,0.5-0.5c0.2-0.2,0.3-0.5,0.4-0.8c0.1-0.3,0.2-0.7,0.2-1l0.2-12.5L460.3,455.7z"/>
				<path d="M452.7,337.4c-0.1,0-0.2,0-0.3,0.1c-0.1,0.1-0.2,0.2-0.3,0.3c-0.1,0.1-0.2,0.3-0.3,0.6c-0.1,0.2-0.1,0.4-0.1,0.7v0v0
					l0.2,13.4l0.2,13.4c0,0.3,0,0.5,0.1,0.7c0.1,0.2,0.2,0.4,0.3,0.5c0.1,0.1,0.2,0.2,0.3,0.3c0.1,0.1,0.2,0.1,0.3,0.1h0h0l2.9-0.1
					l2.9-0.1c0.1,0,0.2,0,0.4-0.1c0.1-0.1,0.2-0.2,0.3-0.3c0.1-0.1,0.2-0.3,0.3-0.5c0.1-0.2,0.1-0.5,0.1-0.7v0l0,0l-0.2-13.4
					l-0.2-13.4c0-0.2,0-0.5-0.1-0.7c-0.1-0.2-0.2-0.4-0.3-0.5c-0.1-0.1-0.2-0.2-0.3-0.3c-0.1-0.1-0.2-0.1-0.3-0.1h0h0l-2.9,0.1
					L452.7,337.4z M461.4,365.8L461.4,365.8c0,0.4,0,0.8-0.1,1.1c-0.1,0.3-0.2,0.6-0.4,0.9c-0.2,0.3-0.4,0.5-0.7,0.7
					c-0.3,0.2-0.6,0.3-1,0.3l-2.9,0.1l-2.9,0.1h0h0c-0.3,0-0.7-0.1-1-0.3c-0.3-0.2-0.5-0.4-0.7-0.6c-0.2-0.3-0.4-0.6-0.5-0.9
					c-0.1-0.3-0.2-0.7-0.2-1.1l-0.2-13.4l-0.2-13.4v0v0c0-0.4,0-0.7,0.2-1.1c0.1-0.3,0.2-0.6,0.4-0.9c0.2-0.3,0.4-0.5,0.7-0.7
					c0.3-0.2,0.6-0.3,1-0.3l2.9-0.1l2.9-0.1h0h0c0.3,0,0.7,0.1,1,0.3c0.3,0.1,0.5,0.4,0.7,0.6c0.2,0.3,0.3,0.6,0.5,0.9
					c0.1,0.3,0.2,0.7,0.2,1.1l0.2,13.4L461.4,365.8L461.4,365.8z"/>
				<path d="M461.2,246.8L461.2,246.8c0,0.4,0,0.7-0.2,1c-0.1,0.3-0.2,0.6-0.4,0.9c-0.2,0.3-0.4,0.5-0.7,0.7c-0.3,0.2-0.6,0.3-1,0.3
					l-2.9,0l-2.9,0h0h0c-0.3,0-0.7-0.1-0.9-0.2c-0.3-0.2-0.5-0.4-0.7-0.6c-0.2-0.3-0.3-0.6-0.4-0.9c-0.1-0.3-0.2-0.7-0.2-1
					l-0.1-13.5l-0.1-13.5v0c0-0.4,0-0.7,0.1-1c0.1-0.3,0.3-0.6,0.4-0.9c0.2-0.3,0.4-0.5,0.7-0.7c0.3-0.2,0.6-0.3,0.9-0.3l2.9,0
					l2.9,0h0h0c0.3,0,0.7,0.1,0.9,0.3c0.3,0.2,0.5,0.4,0.7,0.6c0.2,0.3,0.3,0.6,0.4,0.9c0.1,0.3,0.2,0.7,0.2,1l0.1,13.5L461.2,246.8
					L461.2,246.8z M460,246.8L460,246.8L460,246.8l-0.1-13.5l-0.1-13.5c0-0.2,0-0.5-0.1-0.7c-0.1-0.2-0.1-0.4-0.3-0.5
					c-0.1-0.1-0.2-0.2-0.3-0.3c-0.1-0.1-0.2-0.1-0.3-0.1h0l-2.9,0l-2.9,0c-0.1,0-0.2,0-0.3,0.1c-0.1,0.1-0.2,0.2-0.3,0.3
					c-0.1,0.1-0.2,0.3-0.3,0.5c-0.1,0.2-0.1,0.4-0.1,0.7v0v0l0.1,13.5l0.1,13.5c0,0.2,0,0.5,0.1,0.7c0.1,0.2,0.2,0.4,0.3,0.5
					c0.1,0.1,0.2,0.2,0.3,0.3c0.1,0.1,0.2,0.1,0.3,0.1h0l2.9,0l2.9,0c0.1,0,0.2,0,0.3-0.1c0.1-0.1,0.2-0.2,0.3-0.3
					c0.1-0.1,0.2-0.3,0.3-0.5C460,247.3,460,247,460,246.8z"/>
				<path d="M461.2,540.6L461.2,540.6c0,0.4-0.1,0.9-0.2,1.2c-0.1,0.4-0.3,0.7-0.5,1c-0.2,0.3-0.5,0.6-0.8,0.8
					c-0.3,0.2-0.7,0.3-1.1,0.3l-2.7,0l-2.7,0h0c-0.4,0-0.8-0.1-1.1-0.3c-0.3-0.2-0.6-0.4-0.8-0.7c-0.2-0.3-0.4-0.6-0.5-1
					c-0.1-0.4-0.2-0.8-0.2-1.2l-0.1-12.9l-0.1-12.9v0v0c0-0.4,0.1-0.8,0.2-1.2c0.1-0.4,0.3-0.7,0.5-1c0.2-0.3,0.5-0.6,0.8-0.7
					c0.3-0.2,0.7-0.3,1.1-0.3l2.7,0l2.7,0h0h0c0.4,0,0.8,0.1,1.1,0.3c0.3,0.2,0.6,0.4,0.8,0.7s0.4,0.6,0.5,1
					c0.1,0.4,0.2,0.8,0.2,1.2l0.1,12.9L461.2,540.6L461.2,540.6z M459.8,541.4c0.1-0.3,0.1-0.5,0.1-0.9v0v0l-0.1-12.9l-0.1-12.9
					c0-0.3,0-0.6-0.1-0.9c-0.1-0.3-0.2-0.5-0.3-0.7c-0.1-0.2-0.3-0.3-0.4-0.4c-0.1-0.1-0.3-0.1-0.5-0.1h0l-2.7,0l-2.7,0
					c-0.1,0-0.3,0-0.5,0.1c-0.1,0.1-0.3,0.2-0.4,0.4c-0.1,0.2-0.2,0.4-0.3,0.7c-0.1,0.3-0.1,0.5-0.1,0.9v0v0l0.1,12.9l0.1,12.9
					c0,0.3,0,0.6,0.1,0.9c0.1,0.3,0.2,0.5,0.3,0.7c0.1,0.2,0.3,0.3,0.4,0.4c0.2,0.1,0.3,0.1,0.5,0.1h0l2.7,0l2.7,0
					c0.2,0,0.3,0,0.5-0.1c0.1-0.1,0.3-0.2,0.4-0.4C459.6,541.9,459.8,541.7,459.8,541.4z"/>
				<path d="M461.1,398.7L461.1,398.7l0,13.3l0,13.3c0,0.4-0.1,0.8-0.2,1.1c-0.1,0.4-0.3,0.7-0.5,1c-0.2,0.3-0.5,0.5-0.8,0.7
					c-0.3,0.2-0.6,0.3-1,0.3h0l0,0l-2.8,0l-2.8,0c-0.4,0-0.7-0.1-1-0.3c-0.3-0.2-0.6-0.4-0.8-0.7c-0.2-0.3-0.4-0.6-0.5-1
					s-0.2-0.8-0.2-1.2l0-13.3l0-13.3v0c0-0.4,0.1-0.8,0.2-1.1c0.1-0.4,0.3-0.7,0.5-1c0.2-0.3,0.5-0.5,0.8-0.7c0.3-0.2,0.6-0.3,1-0.3
					h0h2.8l2.8,0c0.4,0,0.7,0.1,1,0.3c0.3,0.2,0.6,0.4,0.8,0.7c0.2,0.3,0.4,0.6,0.5,1S461.1,398.3,461.1,398.7z M459.9,412l0-13.3
					c0-0.3,0-0.6-0.1-0.8c-0.1-0.2-0.2-0.4-0.3-0.6c-0.1-0.2-0.3-0.3-0.4-0.4s-0.3-0.1-0.4-0.1l-2.8,0h-2.8c-0.1,0-0.3,0-0.4,0.1
					c-0.1,0.1-0.3,0.2-0.4,0.4c-0.1,0.2-0.2,0.4-0.3,0.6c-0.1,0.2-0.1,0.5-0.1,0.8v0l0,13.3l0,13.3c0,0.3,0,0.6,0.1,0.8
					c0.1,0.2,0.2,0.4,0.3,0.6c0.1,0.2,0.3,0.3,0.4,0.4c0.1,0.1,0.3,0.1,0.4,0.1l2.8,0l2.8,0c0.1,0,0.3,0,0.4-0.1
					c0.1-0.1,0.3-0.2,0.4-0.4c0.1-0.2,0.2-0.4,0.3-0.6c0.1-0.2,0.1-0.5,0.1-0.8L459.9,412z"/>
				<path d="M453,277.8c-0.1,0-0.3,0-0.4,0.1c-0.1,0.1-0.3,0.2-0.4,0.4c-0.1,0.2-0.2,0.4-0.3,0.6c-0.1,0.2-0.1,0.5-0.1,0.8l0,13.3
					l0,13.3c0,0.3,0,0.5,0.1,0.8c0.1,0.2,0.2,0.4,0.3,0.6c0.1,0.2,0.3,0.3,0.4,0.4c0.1,0.1,0.3,0.1,0.4,0.1l2.8,0h2.8
					c0.1,0,0.3,0,0.4-0.1c0.1-0.1,0.3-0.2,0.4-0.4c0.1-0.2,0.2-0.4,0.3-0.6c0.1-0.2,0.1-0.5,0.1-0.8v0l0-13.3l0-13.3
					c0-0.3,0-0.5-0.1-0.8c-0.1-0.2-0.2-0.4-0.3-0.6c-0.1-0.2-0.2-0.3-0.4-0.4s-0.3-0.1-0.4-0.1l-2.8,0H453z M461.1,306.2
					L461.1,306.2c0,0.4-0.1,0.8-0.2,1.1s-0.3,0.7-0.5,1c-0.2,0.3-0.5,0.5-0.8,0.7c-0.3,0.2-0.6,0.3-1,0.3h-2.8l-2.8,0
					c-0.4,0-0.7-0.1-1-0.3s-0.6-0.4-0.8-0.7c-0.2-0.3-0.4-0.6-0.5-1c-0.1-0.3-0.2-0.7-0.2-1.1l0-13.3l0-13.3v0
					c0-0.4,0.1-0.8,0.2-1.1c0.1-0.4,0.3-0.7,0.5-1s0.5-0.5,0.8-0.7c0.3-0.2,0.6-0.3,1-0.3h2.8l2.8,0h0c0.4,0,0.7,0.1,1,0.3
					c0.3,0.2,0.6,0.4,0.8,0.7c0.2,0.3,0.4,0.6,0.5,1c0.1,0.4,0.2,0.7,0.2,1.1l0,13.3L461.1,306.2z"/>
				<path d="M419.8,544l-2.4,0l-2.4,0h0h0c-0.5,0-0.9-0.1-1.2-0.3c-0.4-0.2-0.7-0.5-1-0.9c-0.3-0.4-0.5-0.8-0.6-1.2
					c-0.1-0.4-0.2-0.9-0.2-1.5l-0.1-12.5l-0.1-12.5v0v0c0-0.5,0.1-1,0.2-1.5c0.1-0.5,0.3-0.9,0.6-1.2c0.3-0.4,0.6-0.7,1-0.9
					c0.4-0.2,0.8-0.3,1.2-0.3l2.4,0l2.4,0h0h0c0.4,0,0.9,0.1,1.2,0.3c0.4,0.2,0.7,0.5,1,0.9c0.3,0.3,0.5,0.8,0.6,1.2
					c0.1,0.5,0.2,0.9,0.2,1.5l0.1,12.5l0.1,12.5v0v0c0,0.5-0.1,1-0.2,1.4c-0.1,0.5-0.3,0.9-0.6,1.2c-0.2,0.4-0.6,0.7-1,0.9
					C420.7,543.8,420.3,544,419.8,544z M421.6,540.1L421.6,540.1L421.6,540.1l-0.1-12.5l-0.1-12.5c0-0.4-0.1-0.8-0.2-1.1
					c-0.1-0.3-0.2-0.6-0.4-0.9c-0.2-0.2-0.4-0.4-0.6-0.5c-0.2-0.1-0.4-0.2-0.6-0.2h0l-2.4,0l-2.4,0c-0.2,0-0.4,0.1-0.6,0.2
					c-0.2,0.1-0.4,0.3-0.6,0.5c-0.2,0.2-0.3,0.5-0.4,0.9c-0.1,0.3-0.2,0.7-0.2,1.1v0l0.1,12.5l0.1,12.5c0,0.4,0.1,0.8,0.2,1.1
					c0.1,0.3,0.2,0.6,0.4,0.9c0.2,0.2,0.4,0.4,0.6,0.5c0.2,0.1,0.4,0.2,0.6,0.2h0l2.4,0l2.4,0c0.2,0,0.4-0.1,0.6-0.2
					c0.2-0.1,0.4-0.3,0.6-0.5c0.2-0.2,0.3-0.5,0.4-0.9C421.5,540.8,421.6,540.5,421.6,540.1z"/>
				<path d="M422.8,222L422.8,222l-0.2,11.9l-0.1,11.8c0,0.7-0.1,1.3-0.3,1.9s-0.5,1.1-0.8,1.6c-0.3,0.4-0.8,0.8-1.2,1.1
					c-0.5,0.3-1,0.4-1.5,0.4h0h0l-1.5,0l-1.5,0c-0.6,0-1.1-0.2-1.5-0.5c-0.5-0.3-0.9-0.7-1.2-1.1s-0.6-1-0.8-1.6
					c-0.2-0.6-0.3-1.2-0.3-1.9l0,0v0l0.1-11.8l0.1-11.8c0-0.7,0.1-1.3,0.3-1.9c0.2-0.6,0.4-1.1,0.8-1.6c0.3-0.4,0.7-0.8,1.2-1.1
					c0.5-0.3,1-0.4,1.5-0.4h0h0l1.5,0l1.5,0c0.6,0,1.1,0.2,1.5,0.5c0.5,0.3,0.9,0.7,1.2,1.1c0.3,0.5,0.6,1,0.8,1.6
					C422.7,220.6,422.8,221.3,422.8,222L422.8,222z M421.5,222L421.5,222L421.5,222c0-0.6-0.1-1.1-0.2-1.6c-0.1-0.5-0.3-0.9-0.6-1.2
					c-0.2-0.3-0.5-0.6-0.8-0.8c-0.3-0.2-0.6-0.3-0.9-0.3l-1.5,0l-1.5,0h0h0c-0.3,0-0.6,0.1-0.9,0.3c-0.3,0.2-0.6,0.4-0.8,0.8
					s-0.5,0.7-0.6,1.2s-0.2,1-0.2,1.5l-0.1,11.8l-0.1,11.8l0,0v0c0,0.5,0.1,1,0.2,1.5c0.1,0.5,0.3,0.9,0.6,1.2s0.5,0.6,0.8,0.8
					c0.3,0.2,0.6,0.3,0.9,0.3l1.5,0l1.5,0h0h0h0c0.3,0,0.6-0.1,0.9-0.3c0.3-0.2,0.6-0.4,0.8-0.8c0.2-0.3,0.5-0.7,0.6-1.2
					c0.1-0.5,0.2-1,0.2-1.5l0.1-11.8L421.5,222z"/>
				<path d="M422.7,340.3L422.7,340.3l0,12.4l0,12.4c0,0.6-0.1,1.1-0.2,1.6s-0.4,1-0.7,1.3c-0.3,0.4-0.6,0.7-1,0.9
					c-0.4,0.2-0.9,0.4-1.3,0.4l-2.1,0h-2.1c-0.5,0-0.9-0.1-1.3-0.4c-0.4-0.2-0.8-0.6-1-1c-0.3-0.4-0.5-0.8-0.7-1.3
					c-0.2-0.5-0.2-1-0.2-1.6v0l0-12.4l0-12.4c0-0.6,0.1-1.1,0.2-1.6c0.2-0.5,0.4-0.9,0.7-1.3c0.3-0.4,0.6-0.7,1-1
					c0.4-0.2,0.9-0.4,1.3-0.4h0h2.1l2.1,0c0.5,0,0.9,0.1,1.3,0.4c0.4,0.2,0.8,0.6,1,1c0.3,0.4,0.5,0.8,0.7,1.3
					C422.6,339.2,422.7,339.7,422.7,340.3z M421.5,340.3L421.5,340.3c0-0.5-0.1-0.9-0.2-1.2c-0.1-0.4-0.3-0.7-0.5-1
					c-0.2-0.3-0.4-0.5-0.7-0.6c-0.2-0.1-0.5-0.2-0.7-0.2l-2.1,0h-2.1c-0.2,0-0.5,0.1-0.7,0.2c-0.2,0.1-0.5,0.3-0.7,0.6
					c-0.2,0.3-0.4,0.6-0.5,1c-0.1,0.4-0.2,0.8-0.2,1.2l0,12.4l0,12.4v0c0,0.4,0.1,0.9,0.2,1.2c0.1,0.4,0.3,0.7,0.5,1
					c0.2,0.3,0.4,0.5,0.7,0.6c0.2,0.1,0.5,0.2,0.7,0.2h2.1l2.1,0h0c0.2,0,0.5-0.1,0.7-0.2c0.2-0.1,0.5-0.3,0.7-0.6
					c0.2-0.3,0.4-0.6,0.5-1c0.1-0.4,0.2-0.8,0.2-1.2l0-12.4L421.5,340.3z"/>
				<path d="M412,399.6c0-0.5,0.1-1.1,0.2-1.5c0.1-0.5,0.4-0.9,0.7-1.3c0.3-0.4,0.6-0.7,1-0.9c0.4-0.2,0.8-0.4,1.3-0.4h0h0l2.2,0
					l2.2,0h0c0.5,0,0.9,0.1,1.3,0.4c0.4,0.2,0.7,0.6,1,0.9c0.3,0.4,0.5,0.8,0.6,1.3c0.1,0.5,0.2,1,0.2,1.5v0v0l-0.1,12.3l-0.1,12.3
					c0,0.5-0.1,1.1-0.2,1.5c-0.2,0.5-0.4,0.9-0.7,1.3c-0.3,0.4-0.6,0.7-1,0.9c-0.4,0.2-0.8,0.4-1.3,0.4h0h0h0l-2.2,0l-2.2,0
					c-0.5,0-0.9-0.1-1.3-0.4c-0.4-0.2-0.7-0.6-1-0.9s-0.5-0.8-0.6-1.3c-0.1-0.5-0.2-1-0.2-1.5v0v0l0.1-12.3L412,399.6z M421.5,399.8
					L421.5,399.8L421.5,399.8c0-0.5-0.1-0.9-0.2-1.2s-0.3-0.7-0.4-0.9c-0.2-0.3-0.4-0.5-0.6-0.6c-0.2-0.1-0.5-0.2-0.7-0.2l-2.2,0
					l-2.2,0h0h0c-0.2,0-0.5,0.1-0.7,0.2c-0.2,0.1-0.4,0.3-0.6,0.6c-0.2,0.2-0.4,0.6-0.5,0.9c-0.1,0.4-0.2,0.8-0.2,1.2l-0.1,12.3
					l-0.1,12.3v0v0v0c0,0.4,0.1,0.8,0.2,1.2c0.1,0.4,0.3,0.7,0.4,0.9c0.2,0.3,0.4,0.5,0.6,0.6c0.2,0.1,0.5,0.2,0.7,0.2l2.2,0l2.2,0
					h0h0c0.2,0,0.5-0.1,0.7-0.2c0.2-0.1,0.4-0.3,0.6-0.6c0.2-0.2,0.3-0.6,0.5-0.9c0.1-0.4,0.2-0.8,0.2-1.2l0.1-12.3L421.5,399.8z"/>
				<path d="M422.6,468v12.3c0,0.5-0.1,1.1-0.2,1.5c-0.1,0.5-0.4,0.9-0.6,1.3c-0.3,0.4-0.6,0.7-1,0.9c-0.4,0.2-0.8,0.4-1.3,0.4h-2.2
					H415c-0.5,0-0.9-0.1-1.3-0.4c-0.4-0.2-0.7-0.5-1-0.9c-0.3-0.4-0.5-0.8-0.6-1.3c-0.1-0.5-0.2-1-0.2-1.5V468v-12.3
					c0-0.5,0.1-1.1,0.2-1.5c0.1-0.5,0.4-0.9,0.6-1.3c0.3-0.4,0.6-0.7,1-0.9c0.4-0.2,0.8-0.4,1.3-0.4h2.2h2.2c0.5,0,0.9,0.1,1.3,0.4
					c0.4,0.2,0.7,0.5,1,0.9c0.3,0.4,0.5,0.8,0.6,1.3c0.1,0.5,0.2,1,0.2,1.5V468z M421.4,480.3V468v-12.3c0-0.4-0.1-0.8-0.2-1.2
					s-0.3-0.7-0.5-0.9c-0.2-0.3-0.4-0.5-0.6-0.6c-0.2-0.1-0.5-0.2-0.7-0.2h-2.2H415c-0.2,0-0.5,0.1-0.7,0.2
					c-0.2,0.1-0.4,0.3-0.6,0.6c-0.2,0.3-0.3,0.6-0.5,0.9s-0.2,0.8-0.2,1.2V468v12.3c0,0.4,0.1,0.8,0.2,1.2s0.3,0.7,0.5,0.9
					c0.2,0.3,0.4,0.5,0.6,0.6c0.2,0.1,0.5,0.2,0.7,0.2h2.2h2.2c0.2,0,0.5-0.1,0.7-0.2c0.2-0.1,0.4-0.3,0.6-0.6
					c0.2-0.2,0.4-0.6,0.5-0.9S421.4,480.7,421.4,480.3z"/>
				<path d="M422.5,293.3v12.9c0,0.5-0.1,1-0.2,1.5c-0.1,0.5-0.4,0.9-0.6,1.2c-0.3,0.4-0.6,0.7-1,0.9c-0.4,0.2-0.8,0.3-1.2,0.3h-2.2
					H415c-0.5,0-0.9-0.1-1.3-0.3c-0.4-0.2-0.7-0.5-1-0.9c-0.3-0.4-0.5-0.8-0.6-1.2c-0.1-0.5-0.2-1-0.2-1.5v-12.9v-12.9
					c0-0.5,0.1-1,0.2-1.5c0.1-0.5,0.3-0.9,0.6-1.2c0.3-0.4,0.6-0.7,1-0.9c0.4-0.2,0.8-0.3,1.3-0.3h2.2h2.2c0.5,0,0.9,0.1,1.2,0.3
					c0.4,0.2,0.7,0.5,1,0.9c0.3,0.4,0.5,0.8,0.6,1.2c0.1,0.5,0.2,1,0.2,1.5V293.3z M421.2,306.2v-12.9v-12.9c0-0.4,0-0.8-0.2-1.1
					c-0.1-0.3-0.2-0.6-0.4-0.9c-0.2-0.2-0.4-0.4-0.6-0.5c-0.2-0.1-0.4-0.2-0.6-0.2h-2.2H415c-0.2,0-0.4,0-0.6,0.2
					c-0.2,0.1-0.4,0.3-0.6,0.5c-0.2,0.2-0.3,0.5-0.4,0.9c-0.1,0.3-0.2,0.7-0.2,1.1v12.9v12.9c0,0.4,0.1,0.8,0.2,1.1
					c0.1,0.3,0.3,0.6,0.4,0.9c0.2,0.2,0.4,0.4,0.6,0.5c0.2,0.1,0.4,0.2,0.6,0.2h2.2h2.2c0.2,0,0.4-0.1,0.6-0.2
					c0.2-0.1,0.4-0.3,0.6-0.5c0.2-0.2,0.3-0.5,0.4-0.9C421.2,307,421.2,306.6,421.2,306.2z"/>
				<path d="M381.9,367.5c0.1,0,0.2,0,0.3-0.1c0.1-0.1,0.2-0.2,0.3-0.3c0.1-0.1,0.2-0.3,0.2-0.5c0.1-0.2,0.1-0.4,0.1-0.6v0v0
					l-0.2-13.6l-0.2-13.6c0-0.2,0-0.5-0.1-0.7c-0.1-0.2-0.1-0.4-0.2-0.5c-0.1-0.1-0.2-0.2-0.3-0.3c-0.1-0.1-0.2-0.1-0.3-0.1h0
					l-3,0.1l-3,0.1c-0.1,0-0.2,0-0.3,0.1c-0.1,0.1-0.2,0.2-0.3,0.3c-0.1,0.1-0.2,0.3-0.2,0.5c-0.1,0.2-0.1,0.4-0.1,0.7v0v0l0.2,13.6
					l0.2,13.6c0,0.2,0,0.5,0.1,0.6c0.1,0.2,0.1,0.4,0.2,0.5c0.1,0.1,0.2,0.2,0.3,0.3c0.1,0.1,0.2,0.1,0.3,0.1h0l3-0.1L381.9,367.5z
					 M384.1,366L384.1,366c0,0.4,0,0.7-0.1,1c-0.1,0.3-0.2,0.6-0.4,0.9c-0.2,0.3-0.4,0.5-0.7,0.6c-0.3,0.2-0.6,0.3-0.9,0.3l-3,0.1
					l-3,0.1h0h0c-0.3,0-0.6-0.1-0.9-0.2c-0.3-0.1-0.5-0.4-0.7-0.6c-0.2-0.2-0.3-0.5-0.4-0.9c-0.1-0.3-0.2-0.7-0.2-1l-0.2-13.6
					l-0.2-13.6v0v0c0-0.4,0-0.7,0.1-1c0.1-0.3,0.2-0.6,0.4-0.9c0.2-0.2,0.4-0.5,0.7-0.6c0.3-0.2,0.6-0.3,0.9-0.3l3-0.1l3-0.1h0h0
					c0.3,0,0.6,0.1,0.9,0.2c0.3,0.2,0.5,0.4,0.7,0.6c0.2,0.3,0.3,0.5,0.4,0.9c0.1,0.3,0.2,0.7,0.2,1l0.2,13.6L384.1,366L384.1,366z"
					/>
				<path d="M374.9,279.4l-0.1,13.3l-0.1,13.3v0v0c0,0.3,0,0.5,0.1,0.8c0.1,0.2,0.2,0.4,0.3,0.6c0.1,0.2,0.2,0.3,0.4,0.4
					c0.1,0.1,0.3,0.1,0.4,0.1l2.8,0l2.8,0h0c0.1,0,0.3,0,0.4-0.1c0.1-0.1,0.3-0.2,0.4-0.3c0.1-0.2,0.2-0.3,0.3-0.6
					c0.1-0.2,0.1-0.5,0.1-0.7l0.1-13.3l0.1-13.3v0v0c0-0.3,0-0.5-0.1-0.8c-0.1-0.2-0.2-0.4-0.3-0.6c-0.1-0.2-0.2-0.3-0.4-0.4
					c-0.1-0.1-0.3-0.1-0.4-0.1l-2.8,0l-2.8-0.1h0c-0.1,0-0.2,0-0.4,0.1c-0.1,0.1-0.2,0.2-0.4,0.3c-0.1,0.1-0.2,0.3-0.3,0.6
					C375,278.9,374.9,279.2,374.9,279.4z M384,279.6L384,279.6l-0.1,13.3l-0.1,13.3v0c0,0.4-0.1,0.8-0.2,1.1
					c-0.1,0.3-0.3,0.7-0.5,0.9c-0.2,0.3-0.5,0.5-0.8,0.7c-0.3,0.2-0.6,0.3-1,0.3h0h0l-2.8,0l-2.8,0c-0.4,0-0.7-0.1-1-0.3
					c-0.3-0.2-0.5-0.4-0.7-0.7c-0.2-0.3-0.4-0.6-0.5-1c-0.1-0.3-0.2-0.7-0.2-1.1v0v0l0.1-13.3l0.1-13.3c0-0.4,0.1-0.8,0.2-1.1
					c0.1-0.3,0.3-0.7,0.5-0.9c0.2-0.3,0.5-0.5,0.8-0.7c0.3-0.2,0.6-0.3,1-0.3h0h0l2.8,0.1l2.8,0c0.4,0,0.7,0.1,1,0.3
					s0.5,0.4,0.7,0.7c0.2,0.3,0.4,0.6,0.5,1C384,278.8,384,279.2,384,279.6L384,279.6z"/>
				<path d="M384,398.5L384,398.5L384,398.5l-0.1,13.6l-0.1,13.6c0,0.4-0.1,0.7-0.2,1c-0.1,0.3-0.3,0.6-0.4,0.9s-0.4,0.5-0.7,0.6
					s-0.6,0.2-0.9,0.2h0h0h0l-2.9,0l-2.9-0.1c-0.3,0-0.7-0.1-0.9-0.3c-0.3-0.2-0.5-0.4-0.7-0.6c-0.2-0.3-0.3-0.6-0.4-0.9
					c-0.1-0.3-0.2-0.7-0.2-1v0v0l0.1-13.6l0.1-13.6c0-0.4,0.1-0.7,0.2-1c0.1-0.3,0.3-0.6,0.4-0.9c0.2-0.2,0.4-0.5,0.7-0.6
					c0.3-0.2,0.6-0.2,0.9-0.2h0h0l2.9,0l2.9,0.1c0.3,0,0.7,0.1,0.9,0.3c0.3,0.2,0.5,0.4,0.7,0.6c0.2,0.3,0.3,0.6,0.4,0.9
					C383.9,397.8,384,398.1,384,398.5z M382.8,398.5L382.8,398.5c0-0.3,0-0.5-0.1-0.7c-0.1-0.2-0.1-0.4-0.3-0.5
					c-0.1-0.1-0.2-0.2-0.3-0.3c-0.1-0.1-0.2-0.1-0.3-0.1l-2.9-0.1l-2.9,0h0c-0.1,0-0.2,0-0.3,0.1s-0.2,0.2-0.3,0.3
					c-0.1,0.1-0.2,0.3-0.3,0.5c-0.1,0.2-0.1,0.4-0.1,0.7l-0.1,13.6l-0.1,13.6v0c0,0.2,0,0.5,0.1,0.7c0.1,0.2,0.1,0.4,0.3,0.5
					c0.1,0.1,0.2,0.2,0.3,0.3c0.1,0.1,0.2,0.1,0.3,0.1l2.9,0.1l2.9,0h0c0.1,0,0.2,0,0.3-0.1s0.2-0.2,0.3-0.3
					c0.1-0.1,0.2-0.3,0.2-0.5c0.1-0.2,0.1-0.4,0.1-0.7l0.1-13.6L382.8,398.5L382.8,398.5z"/>
				<path d="M383.9,219.9L383.9,219.9l0,13.5l0,13.4c0,0.4-0.1,0.7-0.2,1.1c-0.1,0.3-0.3,0.7-0.5,0.9c-0.2,0.3-0.4,0.5-0.7,0.7
					c-0.3,0.2-0.6,0.3-1,0.3h0l-2.8,0l-2.8,0c-0.3,0-0.7-0.1-1-0.3c-0.3-0.2-0.5-0.4-0.7-0.7c-0.2-0.3-0.3-0.6-0.5-0.9
					c-0.1-0.3-0.2-0.7-0.2-1.1v0l0.1-13.5l0-13.4c0-0.4,0.1-0.7,0.2-1.1c0.1-0.3,0.3-0.7,0.5-0.9c0.2-0.3,0.4-0.5,0.7-0.7
					c0.3-0.2,0.6-0.3,1-0.3h0l2.8,0l2.8,0c0.4,0,0.7,0.1,1,0.3c0.3,0.2,0.5,0.4,0.7,0.7c0.2,0.3,0.4,0.6,0.5,0.9
					C383.8,219.1,383.9,219.5,383.9,219.9L383.9,219.9z M382.6,219.9L382.6,219.9c0-0.3,0-0.5-0.1-0.7c-0.1-0.2-0.2-0.4-0.3-0.6
					c-0.1-0.1-0.2-0.3-0.4-0.3c-0.1-0.1-0.2-0.1-0.3-0.1l-2.8,0l-2.8,0c-0.1,0-0.2,0-0.4,0.1c-0.1,0.1-0.2,0.2-0.3,0.3
					s-0.2,0.3-0.3,0.6c-0.1,0.2-0.1,0.5-0.1,0.7l0,13.5l-0.1,13.4v0c0,0.2,0,0.5,0.1,0.7c0.1,0.2,0.2,0.4,0.3,0.6s0.2,0.3,0.3,0.3
					c0.1,0.1,0.2,0.1,0.4,0.1l2.8,0l2.8,0h0c0.1,0,0.2,0,0.4-0.1c0.1-0.1,0.2-0.2,0.3-0.3s0.2-0.3,0.3-0.6c0.1-0.2,0.1-0.4,0.1-0.7
					l0-13.5L382.6,219.9z"/>
				<path d="M382.5,541l0-13.4l0-13.4v0c0-0.3,0-0.5-0.1-0.7c-0.1-0.2-0.2-0.4-0.3-0.6c-0.1-0.2-0.2-0.3-0.4-0.3
					c-0.1-0.1-0.2-0.1-0.4-0.1l-2.8,0l-2.8,0c-0.1,0-0.2,0-0.4,0.1c-0.1,0.1-0.2,0.2-0.4,0.3c-0.1,0.2-0.2,0.3-0.3,0.6
					c-0.1,0.2-0.1,0.5-0.1,0.7l0,13.4l0,13.4c0,0.3,0,0.5,0.1,0.7c0.1,0.2,0.2,0.4,0.3,0.6c0.1,0.2,0.2,0.3,0.4,0.3
					c0.1,0.1,0.2,0.1,0.4,0.1l2.8,0l2.8,0h0c0.1,0,0.2,0,0.4-0.1c0.1-0.1,0.2-0.2,0.4-0.3c0.1-0.1,0.2-0.3,0.3-0.6
					C382.4,541.5,382.5,541.3,382.5,541z M383.8,514.2L383.8,514.2l0,13.4l0,13.4c0,0.4-0.1,0.8-0.2,1.1c-0.1,0.3-0.3,0.7-0.5,0.9
					s-0.4,0.5-0.7,0.7c-0.3,0.2-0.6,0.3-1,0.3h0l-2.8,0l-2.8,0c-0.4,0-0.7-0.1-1-0.3c-0.3-0.2-0.5-0.4-0.7-0.7
					c-0.2-0.3-0.3-0.6-0.5-0.9c-0.1-0.3-0.2-0.7-0.2-1.1v0l0-13.4l0-13.4c0-0.4,0.1-0.8,0.2-1.1c0.1-0.3,0.3-0.7,0.5-0.9
					c0.2-0.3,0.5-0.5,0.7-0.7c0.3-0.2,0.6-0.3,1-0.3h0l2.8,0l2.8,0c0.4,0,0.7,0.1,1,0.3c0.3,0.2,0.5,0.4,0.7,0.7
					c0.2,0.3,0.3,0.6,0.5,0.9C383.7,513.5,383.8,513.9,383.8,514.2z"/>
				<path d="M373.3,454.3c0-0.3,0-0.6,0.1-0.9c0.1-0.3,0.2-0.5,0.4-0.8s0.4-0.4,0.6-0.6c0.2-0.1,0.5-0.2,0.8-0.2h3.2l3.2,0
					c0.3,0,0.6,0.1,0.8,0.2c0.2,0.1,0.5,0.3,0.6,0.6c0.2,0.2,0.3,0.5,0.4,0.8s0.1,0.6,0.1,0.9l0,13.8l0,13.8v0c0,0.3,0,0.6-0.1,0.9
					c-0.1,0.3-0.2,0.5-0.4,0.8c-0.2,0.2-0.4,0.4-0.6,0.6c-0.2,0.1-0.5,0.2-0.8,0.2l-3.2,0l-3.2,0h0c-0.3,0-0.6-0.1-0.8-0.2
					c-0.2-0.1-0.5-0.3-0.6-0.6c-0.2-0.2-0.3-0.5-0.4-0.8c-0.1-0.3-0.1-0.6-0.1-0.9l0-13.8L373.3,454.3z M382.5,481.9L382.5,481.9
					l0-13.8l0-13.8c0-0.2,0-0.4-0.1-0.5c0-0.2-0.1-0.3-0.2-0.4c-0.1-0.1-0.2-0.2-0.2-0.2c-0.1,0-0.1-0.1-0.2-0.1l-3.2,0h-3.2
					c-0.1,0-0.1,0-0.2,0.1c-0.1,0-0.2,0.1-0.2,0.2c-0.1,0.1-0.1,0.2-0.2,0.4c0,0.2-0.1,0.3-0.1,0.5l0,13.8l0,13.8
					c0,0.2,0,0.4,0.1,0.5c0,0.1,0.1,0.3,0.2,0.4c0.1,0.1,0.2,0.2,0.2,0.2c0.1,0,0.1,0.1,0.2,0.1h0l3.2,0h3.2c0.1,0,0.1,0,0.2-0.1
					c0.1,0,0.1-0.1,0.2-0.2c0.1-0.1,0.1-0.2,0.2-0.4C382.4,482.3,382.5,482.1,382.5,481.9z"/>
			</g>
			<g>
				<polyline class="st3" points="509.2,673.5 508.6,673.5 508.6,375.4 508.6,364.3 				"/>
				<polyline class="st3" points="314.9,674.8 315.8,674.8 508.6,673.5 				"/>
			</g>
		</g>
	</g>
</g>
<g id="Layer_1">
	<g>
		<g id="XMLID_00000023260957376356264300000003938875586847779240_">
			<g>
				<path d="M1226.6,673.8v3.1c-21.7,0.3-36.3,0.4-36.3,0.4c-262.3,0-293.3-0.1-286.9-1.8c6.4-1.5,43.8-1.8,285.7-1.8
					C1201.6,673.8,1226.6,676.2,1226.6,673.8z"/>
				<path d="M901.4,231.5v129c0,85.2-0.1,115-0.8,124c-0.3-6.1-0.6-8.3-1.1-9.1c-0.4-0.6-0.7-0.3-1,2.1c-0.5-14-0.7-45.9-0.8-117.1
					l-0.4-126H860v-2.8c14,0,27.8,0,32.3-0.1L901.4,231.5z"/>
				<path d="M901.1,586.4c0,43.6-0.4,88.5-0.4,88.6c0,0,0,0,0,0c-0.3,0-3.1-88.2-3.1-88.2c0-76.1,0.1-102.1,0.8-109.3
					c0.3,7.7,0.6,10,1.2,10.4c0.4,0.3,0.7-0.4,0.9-3.5C901,496.6,901.1,523.9,901.1,586.4z"/>
				<path class="st4" d="M900.7,675H441.2c-0.1-0.7-0.6-0.6-1.5,0h-0.9c0.1-0.1,0.2-0.3,0.4-0.4c1.5-1.9,2-4.6,2-12.5V652l10.9-0.4
					l10.8-0.4l0.4-8l0.4-7.8h7.4c2.2,0,3.9-0.1,5.2-0.3c1.9,0.1,4.4,0.1,7.9,0.1c4.9,0,3.7-9.1,3.7-9.2c0-0.2,1.4-14.3,1.4-57.4
					c0-36.5-0.1-49.7-0.9-54.6c0.7-0.5,0.9-4,0.9-14.2v-15.3h2.8c2.7,0,2.9-0.5,3.3-6.2c0.4-6.1,0.4-6.1,4.4-6.3
					c2.2,0,4.8-0.1,5.6-0.2c1.1-0.1,1.4-7,1.4-30.6v-30.4h-3.5h-3.5l-0.1-10.3c-0.1-5.6-0.2-11.8-0.4-13.7l-0.1-3.5l53.5-0.4
					l53.5-0.2l0.4,8.4c0.4,7.3,0.7,8.5,2.5,8.4c1.1-0.1,3.3-0.2,4.9-0.4l2.9-0.1v-50.3v-50.3h18.7h18.7l0.1-23.8
					c0.1-13,0.1-24,0-24.6c0-0.5,0.6-0.8,1.4-0.8c0.7,0,16,0,34,0l32.4,0.1v-22.4v-22.2h8.2h8.2v16.4v16.4h7.6h7.6l0.1,48.2
					c0,26.6,0,66.1,0,87.8l-0.2,39.6h7.7h7.6l0.2-115.7l0.4-115.6l26.7-0.4l26.6-0.2v26.6v26.7H860h37.2l0.4,126
					c0.2,71.2,0.3,103.1,0.8,117.1c-0.7,7.3-0.8,33.3-0.8,109.3C897.6,586.9,900.4,675,900.7,675z"/>
				<path d="M900.5,484.5c-0.2,3.1-0.5,3.8-0.9,3.5c-0.5-0.5-0.9-2.8-1.2-10.4c0.2-2.5,0.6-2.8,1-2.1
					C899.9,476.3,900.3,478.5,900.5,484.5z"/>
				<path d="M860,231.7v2.8h-37.1v-26.7v-26.6v-2.3h3.5v26.3v26.3l28.4,0.1C856.6,231.7,858.3,231.7,860,231.7z"/>
				<path d="M822.9,178.9v2.3l-26.6,0.2l-26.7,0.4l-0.4,115.6l-0.2,115.7h-7.6v-2.8l4.1-0.1v-32.8c0-18,0-70,0-115.7v-82.8H796
					H822.9z"/>
				<path d="M761.5,410.3v2.8h-7.7l0.2-39.6c0-21.7,0-61.2,0-87.8l-0.1-48.2h-7.6h-7.6v-16.4v-16.4h-8.2h-8.2v22.2v22.4l-32.4-0.1
					c-17.9,0-33.2,0-34,0c-0.8,0-1.4,0.4-1.4,0.8l-2.1-0.2c0.2-3.1,0.6-4.2,1.1-4.1c0.7,0.1,15.8,0.1,33.4,0l31.8-0.1v-22.2v-22.2
					h11.7h11.7v16.4v16.4h7.6h7.6v88.2v88.2H761.5z"/>
				<path d="M654.4,250c0.1,0.6,0.1,11.6,0,24.6l-0.1,23.8h-18.7h-18.7v50.3V399l-2.9,0.1c-1.6,0.1-3.9,0.2-4.9,0.4
					c-1.8,0.1-2.1-1.2-2.5-8.4l-0.4-8.4v-2.3h3.6v7.6v0.6c0,6.6,0.4,8.2,1.8,8.2c0.8,0,1.2-1.6,1.5-8.8c0.1-2,0.1-4.5,0.2-7.6
					c0.1-7.6,0.1-18.7,0.1-34.6v-50.9h19.3H652v-24.6c0-10.4,0.1-16.8,0.4-20.4L654.4,250z"/>
				<path d="M606.2,380.3v2.3l-53.5,0.2l-53.5,0.4l0.1,3.5c0.1,1.9,0.2,8.1,0.4,13.7l0.1,10.3h3.5h3.5v30.4
					c0,23.5-0.4,30.4-1.4,30.6c-0.8,0.1-3.4,0.2-5.6,0.2c-4.1,0.2-4.1,0.2-4.4,6.3c-0.4,5.7-0.6,6.2-3.3,6.2h-2.8v15.3
					c0,10.2-0.1,13.7-0.9,14.2c-0.2-1.6-0.5-2.3-0.9-2.6c-0.4-0.3-0.7-0.2-0.9,0.8c-0.7-2.1-0.8-6.4-0.8-15.5V481h2.9
					c2.7,0,2.9-0.4,2.9-5.9v-5.9h5.9h5.9v-27.5v-27.5h-3.5h-3.5v-17v-17h56.8H606.2z"/>
				<path d="M488.4,514c0.7,4.9,0.9,18.1,0.9,54.6c0,43.1-1.4,57.2-1.4,57.4c0,0.2,1.2,9.2-3.7,9.2c-3.5,0-6,0-7.9-0.1
					c1.9-0.3,3.1-0.8,3.7-1.4c0.8-0.9,0.7-1.4-1.3-1.6c2.2-0.3,5-0.2,5.5-0.2c0.9,0,1.6-0.9,1.6-2.1c0-1.1,0-28.6,0-61
					c0-40.4,0.1-53.4,0.8-56.7c0.2,0.8,0.5,1.2,0.9,1.5C487.9,514.1,488.2,514.2,488.4,514z"/>
				<path d="M488.4,514c-0.2,0.2-0.5,0-0.9-0.3c-0.4-0.3-0.7-0.8-0.9-1.5c0,0,0,0,0,0c0.2-1,0.5-1.1,0.9-0.8
					C487.9,511.7,488.2,512.4,488.4,514z"/>
				<path d="M478.6,632.2c2,0.2,2.1,0.7,1.3,1.6c-0.6,0.7-1.8,1.2-3.7,1.4c-9.4-0.2-1.1-0.9-0.1-2.3
					C476.5,632.5,477.4,632.3,478.6,632.2z"/>
				<path d="M438.9,675c-0.8,1-1.2,1.4-1.1,1.4v0c-13.2,0.2-53.5-0.3-57.1-0.6c15.8-0.7,30-1.3,29.5-1.4c-0.1,0-10-0.1-24.4-0.3
					c4.3-0.2,11.6-0.4,23.3-0.5l28-0.2l0.4-12.5l0.4-12.5l11.4-0.4l11.4-0.4l0.4-8l0.4-7.8h10.1c3.5,0,5.8,0,7.2,0.2
					c-1.1,0.1-2.1,0.4-2.4,0.7c-1.1,1.4-9.3,2.1,0.1,2.3c-1.3,0.2-3.1,0.3-5.2,0.3h-7.4l-0.4,7.8l-0.4,8l-10.8,0.4l-10.9,0.4v10.1
					c0,8-0.5,10.7-2,12.5C439.1,674.8,439,674.9,438.9,675z"/>
				<path d="M441.2,675c0,0,0,0.1,0,0.2c0,0.7-0.7,1.3-1.4,1.3c-0.6,0-1.3,0-2.1,0v0c0.1,0,0.6-0.4,1.5-1.1c0.2-0.2,0.4-0.3,0.5-0.4
					H441.2z"/>
				<path d="M441.2,675h-1.5C440.7,674.4,441.2,674.4,441.2,675z"/>
				<path d="M410.2,674.5c0.5,0.1-13.7,0.7-29.5,1.4c0,0,0,0,0,0c-0.1,0-0.2,0-0.2,0c-0.8-0.8,0.1-1.3,5.4-1.6
					C400.3,674.4,410.1,674.5,410.2,674.5z"/>
				<path d="M380.5,675.9c0,0,0.1,0,0.2,0c-19.1,0.8-40.5,1.7-40.5,1.7c-81,0-90.5-0.1-88.5-1.8c2-1.5,13.5-1.8,88.2-1.8
					c16.4,0,33,0.1,46,0.2C380.6,674.6,379.7,675.1,380.5,675.9z"/>
			</g>
			<g>
				<line class="st5" x1="907" y1="675" x2="900.7" y2="675"/>
				<line class="st5" x1="900.7" y1="675" x2="441.2" y2="675"/>
				<line class="st5" x1="441.2" y1="675" x2="439.8" y2="675"/>
				<line class="st5" x1="439.8" y1="675" x2="438.9" y2="675"/>
				<line class="st5" x1="438.9" y1="675" x2="437.5" y2="675"/>
			</g>
		</g>
	</g>
</g>
<g id="Layer_4">
	<g>
		<path class="st6" d="M556.6,602.2l-0.1,35.1l17.9-35.1l7.2,0l-13.5,26.3l16.2,39.8l-7.7,0l-12.9-33l-7.2,14l0,19l-7.1,0l0.1-66.1
			L556.6,602.2z"/>
		<path class="st6" d="M618.3,668.5l-3.3-14.7l-14.9,0l-3.2,14.7l-6.9,0l14.5-66.1l6.4,0l14.4,66.1L618.3,668.5z M607.4,616.5
			l-6.4,31.2l12.9,0L607.4,616.5z"/>
		<path class="st6" d="M635,602.4l7.2,0l13.8,41.4l0.3,0l13.4-41.4l7.2,0l-0.1,66.1l-7.1,0l0.1-44.8l-0.3,0l-11.9,33.6l-3.5,0
			l-11.8-33.6h-0.3l-0.1,44.8l-7.1,0L635,602.4z"/>
		<path class="st6" d="M696.8,602.5l-0.1,59.6l20.9,0l0,6.5l-28,0l0.1-66.1L696.8,602.5z"/>
		<path class="st6" d="M721.7,619.2c0-4.9,0.4-9.6,4.7-13.7c2.6-2.5,6.4-4,11.2-4c4.7,0,8.5,1.4,11.1,4c4.3,4.1,4.7,8.8,4.7,13.7
			l0,32.7c0,4.9-0.4,9.6-4.7,13.7c-2.6,2.5-6.4,4-11.2,4c-4.7,0-8.5-1.4-11.1-4c-4.3-4.1-4.7-8.8-4.7-13.7L721.7,619.2z
			 M746.4,617.7c0-2.4-0.2-4.7-2.4-6.9c-1.3-1.3-3.5-2.4-6.3-2.4c-2.8,0-5,1-6.3,2.4c-2.3,2.2-2.5,4.5-2.5,6.9l-0.1,35.7
			c0,2.4,0.2,4.7,2.4,7c1.3,1.2,3.5,2.3,6.3,2.3c2.8,0,5-1,6.3-2.3c2.3-2.3,2.5-4.6,2.5-7L746.4,617.7z"/>
		<path class="st6" d="M765.4,619.3c0-4.9,0.4-9.6,4.7-13.7c2.6-2.5,6.4-4,11.2-4c4.7,0,8.5,1.4,11.1,4c4.3,4.1,4.7,8.8,4.7,13.7
			l0,32.7c0,4.9-0.4,9.6-4.7,13.7c-2.6,2.5-6.4,4-11.2,4c-4.7,0-8.5-1.4-11.1-4c-4.3-4.1-4.7-8.8-4.7-13.7L765.4,619.3z M790,617.8
			c0-2.4-0.2-4.7-2.4-6.9c-1.3-1.3-3.5-2.4-6.3-2.4c-2.8,0-5,1-6.3,2.4c-2.3,2.2-2.5,4.5-2.5,6.9l-0.1,35.7c0,2.4,0.2,4.7,2.4,7
			c1.3,1.2,3.5,2.3,6.3,2.3c2.8,0,5-1,6.3-2.3c2.3-2.3,2.5-4.6,2.5-7L790,617.8z"/>
		<path class="st6" d="M811.2,602.6l14.4,0c11.9,0,16.3,7.8,16.3,16.8l0,5.9c0,8.5-5.5,16.1-14.9,16.1l-8.7,0l0,27.3l-7.1,0
			L811.2,602.6z M818.2,635.4l6.7,0c6.5,0,9.8-4.3,9.8-9l0-7.8c0-6-3.1-9.8-9.7-9.8l-6.8,0L818.2,635.4z"/>
		<path class="st6" d="M873.1,618.6c0-1.7-0.2-4.8-2-7.2c-1.1-1.3-2.9-2.7-6.3-2.8c-1.7,0-4,0.4-5.8,2.2c-2.3,2.4-2.5,5.5-2.5,8
			c0,2,0.1,5.4,1.7,7.9c1.3,1.9,3.6,3,5.2,3.6l6,2.2c2.7,0.9,6.2,2.6,8.4,5.6c2.4,3.2,2.6,6.8,2.6,11l0,2.4c0,6.5-1.8,11.3-4.4,14.2
			c-2.4,2.5-6.5,4.1-11.8,4.1c-6.5,0-10.7-2.4-12.7-5.2c-2.8-3.8-2.8-10.1-2.8-11l0-2.4l7.1,0l0,1.9c0,1.8,0.3,4.9,1.9,7
			c2.1,2.5,4.9,2.7,6.5,2.8c4.3,0,6.2-1.7,7.3-2.9c1.8-2.3,1.9-5.4,1.9-7.7l0-2.5c0-2.6-0.3-5.9-1.9-7.8c-1.6-2.2-4.2-3.2-5.4-3.6
			l-7.2-2.6c-3.2-1.1-6.4-2.9-8.2-7.1c-1.2-2.9-1.3-6.1-1.3-9.4l0-2c0-5.3,2-9.3,4.7-11.8c2.9-2.8,6.7-3.8,10.9-3.8
			c9.1,0,15.1,5.9,15.1,16.5l0,2.3l-7.1,0L873.1,618.6z"/>
	</g>
	<g>
		<path d="M452,651.9h3.9c3.2,0,4.4,2.1,4.4,4.5v1.6c0,2.3-1.5,4.4-4,4.4h-2.4v7.4H452V651.9z M453.9,660.7h1.8
			c1.8,0,2.7-1.2,2.7-2.4v-2.1c0-1.6-0.8-2.7-2.6-2.7h-1.8V660.7z"/>
		<path d="M466.5,651.9c1.9,0,4.7,0.3,4.7,4.2v1.4c0,2-0.8,3.3-2.5,3.8l2.9,8.4h-2l-2.6-8.1h-2.2v8.1h-1.9v-17.9H466.5z M464.8,660
			h1.9c1.4,0,2.6-0.8,2.6-2.4v-1.7c0-2.2-1.7-2.4-2.7-2.4h-1.8V660z"/>
		<path d="M476.4,651.9v17.9h-1.9v-17.9H476.4z"/>
		<path d="M481.9,651.9l5.1,13.3v-13.3h1.9v17.9h-1.9l-5.1-13.1v13.1H480v-17.9H481.9z"/>
		<path d="M498.4,655.7c0-0.6-0.3-2.2-2.1-2.2c-2,0-2.2,1.7-2.2,2.7v9.6c0,0.6,0.3,2.3,2.1,2.3c1,0,2.2-0.4,2.2-2.5v-0.6h1.9v0.7
			c0,2.6-1.2,4.3-4.2,4.3c-3.6,0-3.9-2.9-3.9-3.9v-10.6c0-2,1.4-3.9,4-3.9c2.2,0,4.1,1.1,4.1,3.9v1.2h-1.9V655.7z"/>
		<path d="M502.9,651.9h7.2v1.8h-5.3v6.2h4.7v1.7h-4.7v6.5h5.3v1.8h-7.3V651.9z"/>
	</g>
	<g>
		<path d="M542.5,660.4v2.5l-25.7,5.5v-3.1l19.1-3.6v-0.1l-19.1-3.7V655L542.5,660.4z"/>
		<path d="M516.7,648.8h25.7v2.8h-25.7V648.8z"/>
		<path d="M516.7,640.9h23.2v-8.1h2.5v10.9h-25.7V640.9z"/>
		<path d="M516.7,626.8h23.2v-8.1h2.5v10.9h-25.7V626.8z"/>
		<path d="M516.7,615.4v-10.3h2.5v7.6h9V606h2.4v6.7h9.3V605h2.5v10.4H516.7z"/>
	</g>
	<g>
		<path d="M631.6,496.6v7.1l3.6-7.1h1.5l-2.7,5.3l3.3,8.1h-1.6l-2.6-6.7l-1.5,2.8v3.8h-1.4v-13.4H631.6z"/>
		<path d="M644.1,510l-0.7-3h-3l-0.7,3h-1.4l2.9-13.4h1.3l2.9,13.4H644.1z M641.9,499.5l-1.3,6.3h2.6L641.9,499.5z"/>
		<path d="M647.5,496.6h1.5l2.8,8.4h0.1l2.7-8.4h1.5V510h-1.4v-9.1h-0.1l-2.4,6.8h-0.7l-2.4-6.8h-0.1v9.1h-1.4V496.6z"/>
		<path d="M658.6,496.6h2.9c2.4,0,3.3,1.6,3.3,3.4v1.2c0,1.7-1.1,3.3-3,3.3H660v5.5h-1.4V496.6z M660,503.3h1.4c1.3,0,2-0.9,2-1.8
			v-1.6c0-1.2-0.6-2-2-2H660V503.3z"/>
	</g>
	<g>
		<path d="M528,577.9c2.3,0,4.1,1.2,4.1,3.7v1.1c0,1.5-0.5,2.6-2.1,3.3c2,0.7,2.1,2.2,2.1,3.3v1.3c0,1.1-0.1,4.1-4.1,4.1h-3.4v-16.7
			H528z M526.4,585.1h1.4c2,0,2.6-1.3,2.6-2.5v-1.1c0-1.1-0.7-2.1-2.4-2.1h-1.5V585.1z M526.4,593.1h1.5c1.5,0,2.5-0.9,2.5-2.9V589
			c0-1.1-0.7-2.3-2.3-2.3h-1.6V593.1z"/>
		<path d="M538.6,577.9c1.8,0,4.4,0.3,4.4,4v1.3c0,1.8-0.8,3.1-2.3,3.6l2.7,7.9h-1.9l-2.5-7.5h-2v7.5h-1.8v-16.7H538.6z M537,585.5
			h1.8c1.3,0,2.4-0.8,2.4-2.2v-1.6c0-2.1-1.6-2.3-2.5-2.3H537V585.5z"/>
		<path d="M551.9,594.6l-0.8-3.7h-3.8l-0.8,3.7h-1.7l3.6-16.7h1.6l3.7,16.7H551.9z M549.1,581.5l-1.6,7.9h3.3L549.1,581.5z"/>
		<path d="M561.2,581.5c0-0.6-0.2-2.1-2-2.1c-1.9,0-2.1,1.6-2.1,2.5v9c0,0.6,0.3,2.2,1.9,2.2c0.9,0,2.1-0.4,2.1-2.3v-0.5h1.8v0.6
			c0,2.4-1.1,4-4,4c-3.3,0-3.7-2.7-3.7-3.7v-9.9c0-1.9,1.3-3.6,3.7-3.6c2.1,0,3.8,1,3.8,3.7v1.1h-1.7V581.5z"/>
		<path d="M567.2,577.9v8.9l4.5-8.9h1.8l-3.4,6.7l4.1,10.1h-1.9l-3.3-8.3l-1.8,3.5v4.8h-1.8v-16.7H567.2z"/>
		<path d="M576.4,577.9h6.7v1.6h-4.9v5.8h4.3v1.6h-4.3v6h5v1.6h-6.8V577.9z"/>
		<path d="M587.4,577.9V593h5.3v1.6h-7.1v-16.7H587.4z"/>
		<path d="M596.4,587.6v7h-1.8v-7.1l-3.5-9.6h2l2.4,7.3h0.1l2.4-7.3h1.9L596.4,587.6z"/>
	</g>
	<g>
		<path d="M681.7,510.5h-4l-8.9-35.9h5l5.9,26.6h0.2l6-26.6h4.7L681.7,510.5z"/>
		<path d="M700.5,474.6v35.9H696v-35.9H700.5z"/>
		<path d="M713.4,474.6v32.4h13.2v3.5h-17.7v-35.9H713.4z"/>
		<path d="M736.3,474.6v32.4h13.2v3.5h-17.7v-35.9H736.3z"/>
		<path d="M754.8,474.6h16.8v3.5h-12.3v12.5h10.9v3.3h-10.9v13h12.5v3.5h-17V474.6z"/>
	</g>
	<g>
		<path d="M726.4,239.1v-1.9c0-1.6,1-2.2,2.3-2.2h0.8c1.2,0,2.2,0.7,2.2,2v1.2h3.7v1H726.4z M730.8,238.2v-0.9
			c0-0.9-0.6-1.3-1.2-1.3h-1.1c-0.8,0-1.3,0.4-1.3,1.3v0.9H730.8z"/>
		<path d="M726.4,231.9c0-1,0.1-2.4,2.1-2.4h0.7c1,0,1.6,0.4,1.9,1.2l4.2-1.4v1l-4,1.3v1.1h4v1h-9V231.9z M730.4,232.7v-0.9
			c0-0.7-0.4-1.3-1.2-1.3h-0.8c-1.1,0-1.2,0.9-1.2,1.3v0.9H730.4z"/>
		<path d="M726.4,227h9v1h-9V227z"/>
		<path d="M726.4,224.2l6.7-2.5h-6.7v-1h9v1l-6.5,2.5h6.5v1h-9V224.2z"/>
		<path d="M728.3,215.9c-0.3,0-1.1,0.1-1.1,1c0,1,0.9,1.1,1.4,1.1h4.8c0.3,0,1.2-0.1,1.2-1c0-0.5-0.2-1.1-1.3-1.1H733v-1h0.3
			c1.3,0,2.1,0.6,2.1,2.1c0,1.8-1.5,2-2,2h-5.3c-1,0-1.9-0.7-1.9-2c0-1.1,0.5-2,2-2h0.6v0.9H728.3z"/>
		<path d="M726.4,213.7v-3.6h0.9v2.6h3.1v-2.3h0.8v2.3h3.2V210h0.9v3.6H726.4z"/>
	</g>
	<g>
		<path class="st6" d="M522.3,517.3h11.2c9.3,0,12.8,6.1,12.8,13.1v4.6c0,6.6-4.3,12.6-11.7,12.6h-6.8V569h-5.5V517.3z M527.9,542.9
			h5.2c5.1,0,7.7-3.4,7.7-7v-6.1c0-4.7-2.4-7.7-7.6-7.7h-5.3V542.9z"/>
		<path class="st6" d="M564.2,517.3c5.6,0,13.7,0.8,13.7,12.3v4.1c0,5.7-2.4,9.5-7.1,11L579,569h-5.8l-7.6-23.2h-6.3V569h-5.5v-51.7
			H564.2z M559.4,540.9h5.5c4.1,0,7.5-2.4,7.5-6.9v-4.9c0-6.4-4.9-7-7.8-7h-5.2V540.9z"/>
		<path class="st6" d="M592.6,517.3V569h-5.5v-51.7H592.6z"/>
		<path class="st6" d="M608.6,517.3l14.6,38.5v-38.5h5.5V569h-5.5l-14.6-37.7V569H603v-51.7H608.6z"/>
		<path class="st6" d="M656.3,528.5c0-1.8-0.7-6.5-6.1-6.5c-5.8,0-6.3,5-6.3,7.8v27.8c0,1.8,0.8,6.7,6,6.7c2.9,0,6.4-1.3,6.4-7.2
			v-1.6h5.6v1.9c0,7.4-3.4,12.3-12.3,12.3c-10.3,0-11.3-8.4-11.3-11.4v-30.6c0-5.8,4.1-11.2,11.6-11.2c6.4,0,11.7,3.1,11.7,11.3v3.3
			h-5.4V528.5z"/>
		<path class="st6" d="M669.4,517.3h20.7v5.1h-15.2v18h13.4v4.8h-13.4v18.7h15.4v5.1h-21V517.3z"/>
		<path class="st6" d="M710,569H705l-11-51.7h6.2l7.2,38.3h0.2l7.4-38.3h5.8L710,569z"/>
		<path class="st6" d="M733.2,517.3V569h-5.5v-51.7H733.2z"/>
		<path class="st6" d="M749.1,517.3v46.6h16.3v5.1h-21.8v-51.7H749.1z"/>
		<path class="st6" d="M777.5,517.3v46.6h16.3v5.1h-21.8v-51.7H777.5z"/>
		<path class="st6" d="M800.3,517.3H821v5.1h-15.2v18h13.4v4.8h-13.4v18.7h15.4v5.1h-21V517.3z"/>
	</g>
	<g>
		<path class="st6" d="M679.5,430.4c0-1.7,0.2-5,1.9-7.5c2.6-3.6,6.9-3.7,9.2-3.7c2.6,0,4.5,0.2,6.2,1.7c0.9,0.7,1.5,1.6,1.8,2.2
			c0.7-1.5,1.7-2.2,2.5-2.7c2-1.1,3.1-1.1,5-1.1h3c1.7,0,5.8,0,8.3,3.4c1,1.3,1.9,3.4,1.9,6.8v8.7h-40V430.4z M696,432.4v-2.7
			c0-1.9-0.8-3.1-1.5-3.7c-0.8-0.7-2.2-1.1-3.4-1.1h-2.5c-1,0-2.1,0.5-2.7,1.1c-0.7,0.7-1.3,1.8-1.3,3.7v2.7H696z M714.3,432.4v-2.6
			c0-0.9-0.1-2.7-1.8-3.9c-1.3-1-3.4-1-4.1-1h-1.9c-1.9,0-3.3,0.3-4.4,1.5c-0.7,0.9-1,1.8-1,3v2.9H714.3z"/>
		<path class="st6" d="M679.5,405.4c0-2.9-0.2-7.1,3.1-9.8c1.6-1.3,4-2.1,7-2.1h3c2.6,0,5,0.9,6.3,2.1c1,0.9,1.7,2,2.1,3l18.5-6.3
			v5.9l-17.3,5.5v3.4h17.3v5.7h-40V405.4z M697.1,407.2v-3.3c0-1.3-0.3-2.5-1.3-3.5c-1.1-1.1-2.1-1.2-3.6-1.2h-2.9
			c-1.5,0-2.9,0.6-3.7,1.3c-1.1,1.1-1,2.5-1,3.7v3H697.1z"/>
		<path class="st6" d="M719.5,374l-8.6,1.9v7.3l8.6,1.9v5.7l-40-8.8v-5l40-8.8V374z M690.6,379.7l15.2,3v-6.1L690.6,379.7z"/>
		<path class="st6" d="M688.5,352.5c-0.8,0-1.9,0.2-2.6,0.7c-0.4,0.3-1.4,1.1-1.4,3c0,1.5,0.6,2.4,1.3,3c1.1,0.9,2.6,1,3.9,1h19.7
			c1.3,0,2.5,0,3.5-0.7c0.6-0.4,1.4-1.3,1.4-2.9c0-1.3-0.5-2.5-1.4-3.2c-0.4-0.3-1.3-0.8-3.3-0.8h-1.4v-5.7h1.7
			c3.9,0,6.2,1.4,7.3,2.4c1.3,1.2,2.7,3.5,2.7,7.5c0,3.8-1.5,5.9-3,7.2c-2.4,2.1-5.1,2-7.2,2h-20.8c-2.6,0-5.6-0.3-7.8-2.9
			c-1.6-1.8-2.3-4.4-2.3-6.5c0-2.4,0.9-5.2,2.6-6.9c1.4-1.4,3.8-2.6,6.6-2.6h2.7v5.5H688.5z"/>
		<path class="st6" d="M679.5,335.1h19.3l-19.3-9.1v-6l16.4,8.1l23.6-9.6v6.2l-17.9,6.8l6.2,3.5h11.7v5.7h-40V335.1z"/>
		<path class="st6" d="M679.5,313.7v-17h5.4v11.3h11.8v-10h5.1v10h12.2v-11.4h5.4v17.2H679.5z"/>
		<path class="st6" d="M679.5,285.4h34.6v-12.1h5.4v17.8h-40V285.4z"/>
		<path class="st6" d="M702.6,262.1h16.9v5.7h-17l-23,8.4V270l15.9-5v-0.3l-15.9-4.9v-6.1L702.6,262.1z"/>
	</g>
	<g>
		<path d="M806.2,487.1c3.1,0,5.5,1.7,5.5,5.1l0,1.5c0,2.1-0.7,3.6-2.8,4.6c2.7,0.9,2.8,3.1,2.8,4.6l0,1.8c0,1.5-0.1,5.7-5.5,5.7
			l-4.5,0l0-23.4L806.2,487.1z M804.1,508.3l1.9,0c1.9,0,3.3-1.3,3.3-4l0-1.7c0-1.5-0.9-3.3-3.1-3.3l-2.1,0L804.1,508.3z
			 M804.1,497.2l1.8,0c2.7,0,3.4-1.8,3.4-3.5l0-1.5c0-1.5-1-2.9-3.2-2.9l-2,0L804.1,497.2z"/>
		<path d="M820.3,487.1c2.4,0,5.9,0.4,5.9,5.5l0,1.8c0,2.6-1,4.3-3.1,5l3.6,11l-2.5,0l-3.3-10.5l-2.7,0l0,10.5l-2.4,0l0-23.4
			L820.3,487.1z M818.2,497.8l2.4,0c1.7,0,3.2-1.1,3.2-3.1l0-2.2c0-2.9-2.1-3.2-3.3-3.2l-2.2,0L818.2,497.8z"/>
		<path d="M838,510.5l-1.1-5.2l-5,0l-1.1,5.2l-2.3,0l4.8-23.4l2.2,0l4.8,23.4L838,510.5z M834.3,492.1l-2.1,11l4.4,0L834.3,492.1z"
			/>
		<path d="M850.4,492.1c0-0.8-0.3-2.9-2.6-2.9c-2.5,0-2.7,2.3-2.7,3.5l0,12.6c0,0.8,0.3,3,2.6,3c1.2,0,2.8-0.6,2.8-3.3l0-0.7l2.4,0
			l0,0.9c0,3.3-1.5,5.6-5.3,5.6c-4.4,0-4.9-3.8-4.9-5.1l0-13.8c0-2.6,1.8-5.1,5-5.1c2.8,0,5.1,1.4,5.1,5.1l0,1.5l-2.3,0V492.1z"/>
	</g>
	<g>
		<path d="M852,519.2h-12.4l12.4,6.7v2.7l-9.3-5.1l-14.1,6.1v-2.9l11.7-4.9l-4.9-2.7h-6.7v-2.7H852V519.2z"/>
		<path d="M852,532.9v10h-2.3v-7.3h-8.1v6.5h-2.2v-6.5H831v7.4h-2.3v-10.1H852z"/>
		<path d="M852,549.1H831v7.8h-2.3v-10.5H852V549.1z"/>
		<path d="M838.5,562.5h-9.9v-2.7h10l13.4-5.2v2.9l-10.2,3.6v0.1l10.2,3.6v2.8L838.5,562.5z"/>
	</g>
	<g>
		<path d="M800.9,574.1v5.5l2.8-5.5h1.1l-2.1,4.1l2.5,6.2H804l-2-5.1l-1.1,2.2v3h-1.1v-10.3H800.9z"/>
		<path d="M810.5,584.4l-0.5-2.3h-2.3l-0.5,2.3h-1.1l2.2-10.3h1l2.2,10.3H810.5z M808.8,576.3l-1,4.8h2L808.8,576.3z"/>
		<path d="M813.1,574.1h1.1l2.2,6.4h0l2.1-6.4h1.1v10.3h-1.1v-7h0l-1.8,5.2H816l-1.8-5.2h0v7h-1.1V574.1z"/>
		<path d="M821.6,574.1h2.2c1.8,0,2.5,1.2,2.5,2.6v0.9c0,1.3-0.9,2.5-2.3,2.5h-1.4v4.2h-1.1V574.1z M822.7,579.2h1
			c1,0,1.5-0.7,1.5-1.4v-1.2c0-0.9-0.5-1.5-1.5-1.5h-1.1V579.2z"/>
	</g>
	<g>
		<path d="M779.7,511.4v-2.9c0-2.4,1.5-3.3,3.3-3.3h1.2c1.7,0,3.2,1.1,3.2,3v1.7h5.4v1.4H779.7z M786.2,510v-1.3c0-1.3-0.9-2-1.8-2
			h-1.6c-1.2,0-2,0.6-2,1.9v1.4H786.2z"/>
		<path d="M779.7,500.7c0-1.4,0.2-3.5,3.1-3.5h1c1.4,0,2.4,0.6,2.8,1.8l6.2-2.1v1.5l-5.9,1.9v1.6h5.9v1.4h-13.2V500.7z M785.7,502
			v-1.4c0-1-0.6-1.9-1.8-1.9h-1.2c-1.6,0-1.8,1.3-1.8,2v1.3H785.7z"/>
		<path d="M779.7,493.5h13.2v1.4h-13.2V493.5z"/>
		<path d="M779.7,489.4l9.8-3.7h-9.8v-1.4h13.2v1.4l-9.6,3.7h9.6v1.4h-13.2V489.4z"/>
		<path d="M782.5,477.3c-0.5,0-1.7,0.2-1.7,1.5c0,1.5,1.3,1.6,2,1.6h7.1c0.5,0,1.7-0.2,1.7-1.5c0-0.7-0.3-1.6-1.8-1.6h-0.4v-1.4h0.5
			c1.9,0,3.1,0.9,3.1,3.1c0,2.6-2.1,2.9-2.9,2.9h-7.8c-1.5,0-2.9-1-2.9-3c0-1.6,0.8-3,2.9-3h0.8v1.4H782.5z"/>
		<path d="M779.7,473.9v-5.3h1.3v3.9h4.6v-3.4h1.2v3.4h4.8v-3.9h1.3v5.3H779.7z"/>
	</g>
	<g class="st7">
		<path d="M823.4,585.7V596h-1v-3l-1-2.2l-1.8,5.1h-1.1l2.3-6.2l-1.9-4.1h1l2.5,5.5v-5.5H823.4z"/>
		<path d="M812.7,596l2-10.3h0.9l2,10.3h-1l-0.5-2.3h-2.1l-0.5,2.3H812.7z M814.3,592.8h1.8l-0.9-4.8L814.3,592.8z"/>
		<path d="M811.3,596h-1v-7h0l-1.7,5.2h-0.5l-1.7-5.2h0v7h-1v-10.3h1l1.9,6.4h0l2-6.4h1V596z"/>
		<path d="M803.5,596h-1v-4.2h-1.2c-1.3,0-2.1-1.2-2.1-2.5v-0.9c0-1.4,0.6-2.6,2.3-2.6h2V596z M802.5,586.7h-1
			c-0.9,0-1.4,0.6-1.4,1.5v1.2c0,0.7,0.5,1.4,1.4,1.4h1V586.7z"/>
	</g>
	<g class="st8">
		<path class="st9" d="M548.8,736.1l0.1-56.9l7.1,0l0,16.4l7.2,12l13-28.4l7.7,0l-16.3,34.2l13.5,22.7l-7.2,0l-17.8-30.3l0,30.3
			L548.8,736.1z"/>
		<path class="st9" d="M624.6,679.2l-14.5,56.9l-6.4,0l-14.3-57l6.9,0l3.2,12.7l14.9,0l3.3-12.7L624.6,679.2z M613.3,697.1l-12.9,0
			l6.3,26.9L613.3,697.1z"/>
		<path class="st9" d="M634.3,679.3l7.1,0l-0.1,38.6l0.3,0l11.9-28.9l3.5,0l11.8,29h0.3l0.1-38.6l7.1,0l-0.1,56.9l-7.2,0l-13.3-35.6
			l-0.3,0l-13.9,35.6l-7.2,0L634.3,679.3z"/>
		<path class="st9" d="M688.9,736.3l0.1-56.9l28,0l0,5.6l-20.9,0l-0.1,51.3L688.9,736.3z"/>
		<path class="st9" d="M721,693.8c0-4.2,0.4-8.3,4.7-11.8c2.6-2.2,6.4-3.4,11.2-3.4c4.7,0,8.5,1.2,11.1,3.4
			c4.3,3.5,4.7,7.6,4.7,11.8l0,28.1c0,4.2-0.4,8.3-4.7,11.8c-2.6,2.2-6.4,3.4-11.2,3.4c-4.7,0-8.5-1.2-11.1-3.4
			c-4.3-3.5-4.7-7.6-4.7-11.8L721,693.8z M745.7,692.5c0-2-0.2-4.1-2.4-6c-1.3-1.1-3.5-2-6.3-2c-2.8,0-5,0.9-6.3,1.9
			c-2.3,1.9-2.5,4-2.5,6l0,30.7c0,2,0.2,4.1,2.4,5.9c1.3,1.1,3.5,2,6.3,2c2.8,0,5-0.9,6.3-2c2.3-1.9,2.5-3.9,2.5-5.9L745.7,692.5z"
			/>
		<path class="st9" d="M764.7,693.9c0-4.2,0.4-8.3,4.7-11.8c2.6-2.2,6.4-3.4,11.2-3.4c4.7,0,8.5,1.2,11.1,3.4
			c4.3,3.5,4.7,7.6,4.7,11.8l0,28.1c0,4.2-0.4,8.3-4.7,11.8c-2.6,2.2-6.4,3.4-11.2,3.4c-4.7,0-8.5-1.2-11.1-3.4
			c-4.3-3.5-4.7-7.6-4.7-11.8L764.7,693.9z M789.3,692.6c0-2-0.2-4.1-2.4-6c-1.3-1.1-3.5-2-6.3-2c-2.8,0-5,0.9-6.3,1.9
			c-2.3,1.9-2.5,4-2.5,6l0,30.7c0,2,0.2,4.1,2.4,5.9c1.3,1.1,3.5,2,6.3,2c2.8,0,5-0.9,6.3-2c2.3-1.9,2.5-3.9,2.5-5.9L789.3,692.6z"
			/>
		<path class="st9" d="M810.5,679.5l7.1,0l0,23.5l8.7,0c9.4,0,14.9,6.6,14.9,13.9l0,5c0,7.8-4.5,14.5-16.4,14.5l-14.4,0L810.5,679.5
			z M817.5,731.2l6.8,0c6.6,0,9.7-3.2,9.7-8.4l0-6.8c0-4-3.3-7.7-9.8-7.7l-6.7,0L817.5,731.2z"/>
		<path class="st9" d="M872.4,721.3l7.1,0l0,2c0,9.1-6.1,14.1-15.1,14.1c-4.2,0-7.9-0.8-10.9-3.3c-2.7-2.2-4.7-5.6-4.7-10.2l0-1.7
			c0-2.8,0.1-5.5,1.3-8.1c1.8-3.6,5-5.1,8.2-6.1l7.2-2.2c1.1-0.3,3.8-1.2,5.4-3.1c1.6-1.7,1.9-4.6,1.9-6.7l0-2.2
			c0-2-0.1-4.6-1.9-6.6c-1-1.1-2.9-2.5-7.3-2.5c-1.6,0-4.4,0.2-6.5,2.3c-1.6,1.8-1.9,4.5-1.9,6l0,1.6l-7.1,0l0-2
			c0-0.7,0-6.2,2.8-9.4c2.1-2.4,6.2-4.5,12.8-4.5c5.3,0,9.4,1.5,11.8,3.6c2.5,2.4,4.3,6.6,4.3,12.2l0,2c0,3.6-0.3,6.7-2.7,9.4
			c-2.2,2.6-5.7,4-8.4,4.8l-6,1.9c-1.6,0.5-3.9,1.5-5.2,3.1c-1.6,2.2-1.7,5.1-1.7,6.8c0,2.2,0.2,4.9,2.4,6.9
			c1.8,1.5,4.1,1.9,5.8,1.9c3.4,0,5.2-1.2,6.3-2.4c1.8-2,2-4.7,2-6.2L872.4,721.3z"/>
	</g>
	<path class="st10" d="M913.6,713.5"/>
	<path class="st10" d="M913.6,713.5"/>
</g>
</svg>
